    <svg
      xmlns="http://www.w3.org/2000/svg"
      xmlns:xlink="http://www.w3.org/1999/xlink"
      width="272"
      height="103"
      viewBox="0 0 272 103"
    >
      <defs>
        <clipPath id="clip-path">
          <rect
            id="Rectangle_2"
            data-name="Rectangle 2"
            width="272"
            height="103"
            rx="10"
            transform="translate(0 0)"
            fill="#322a7d"
          />
        </clipPath>
      </defs>
      <g id="board-product" transform="translate(-90 -148)">
        <rect
          id="BG"
          width="272"
          height="103"
          rx="10"
          transform="translate(90 148)"
          fill="#f90"
        />
        <g
          id="Group_47003"
          data-name="Group 47003"
          transform="translate(90 148)"
        >
          <g
            id="Pattern"
            transform="translate(0 0)"
            opacity="0.5"
            clip-path="url(#clip-path)"
          >
            <g
              id="Group_5"
              data-name="Group 5"
              transform="translate(-231.785 -194.809)"
            >
              <path
                id="Path_1"
                data-name="Path 1"
                d="M2,1115.016v-84.4c1.537-.03,3.076-.038,4.612-.093,8.8-.317,17.6-.971,26.391-.9,16.978.135,33.953.623,50.925,1.083a32.126,32.126,0,0,0,12.225-1.841c4.007-1.486,8.02-2.967,11.978-4.548a99.324,99.324,0,0,1,31.593-6.572c5.7-.319,11.368-1.048,17.032-1.711s11.28-1.671,16.958-2.167a36.047,36.047,0,0,1,18.728,3.087c5.177,2.438,8.834,6.012,10.341,11.068,2.568,8.61-3.043,16.107-13.115,17.311a54.419,54.419,0,0,1-8.409.181c-4.169-.154-8.326-.7-12.492-.745-9.435-.095-15.588,3.756-18.754,11.512a26.4,26.4,0,0,0-1.141,16.359c3.112,13.262,11.763,23.024,25.567,29.021,18.611,8.085,37.867,8.776,57.227,2.153,17.976-6.149,31.015-17.268,40.454-31.739,6.539-10.025,9.994-20.936,12.191-32.223.862-4.427,2.012-8.817,3.224-13.183a14.807,14.807,0,0,1,3.881-6.456,11.6,11.6,0,0,1,10.768-3.2c.889.15,1.758.388,2.631.6a140.406,140.406,0,0,1,34.319,13.6c3.758,2.072,7.5,4.171,11.325,6.142a91.059,91.059,0,0,0,39.563,10.034,151.171,151.171,0,0,0,26.552-1.863c11.274-1.665,22.5-3.628,33.925-4.364a16.8,16.8,0,0,0,10.243-3.914,44.1,44.1,0,0,0,6.145-6.3c2.758-3.612,5.231-7.4,7.65-11.194,3.168-4.973,6.063-10.078,9.256-15.038a116.962,116.962,0,0,1,35.186-35.42c16.045-10.377,34.032-16.786,53.716-19.575a42.46,42.46,0,0,1,9.194-.163c2.545.2,3.181,1.6,1.958,3.577a14.936,14.936,0,0,1-2.538,3.063c-1.988,1.84-4.032,3.647-6.2,5.329-4.2,3.263-8.49,6.436-12.754,9.635-8.19,6.144-16.264,12.391-23.247,19.618-6.177,6.393-11.384,13.3-14.739,21.177a35.686,35.686,0,0,0-2.7,20.723c1.89,10.358,8,18.606,17.535,24.8,16.291,10.57,34.444,12.781,53.741,7.953,14.7-3.679,26.357-11.419,35.95-21.641,6.594-7.026,11.557-14.914,16.119-23.018,2.516-4.468,4.9-9.006,7.7-13.335a86.65,86.65,0,0,1,7.316-9.39,17.971,17.971,0,0,1,7.209-4.953c10.967-4.2,21.9-8.474,32.966-12.474a94.776,94.776,0,0,1,28.809-5.693c13.488-.5,25.985,2.092,37.058,8.991a131.419,131.419,0,0,1,10.85,7.536c9.572,7.4,18.969,14.969,28.54,22.369,4.538,3.508,9.317,6.781,13.986,10.16v38.883c-.98-.082-1.98-.086-2.938-.26a40.023,40.023,0,0,1-17.448-7.4c-4.21-3.229-8.14-6.758-11.973-10.333-4.645-4.332-9-8.894-13.589-13.276a85.957,85.957,0,0,0-13.869-11c-10.08-6.285-21.353-8.871-33.659-8.245a98.94,98.94,0,0,0-20.552,3.41c-10.625,2.838-20.62,6.995-30.723,10.948a51.379,51.379,0,0,0-15.53,9.434c-2.1,1.86-4.176,3.741-6.249,5.624-3.705,3.368-7.349,6.788-11.11,10.108a107.272,107.272,0,0,1-30.209,18.785,95.476,95.476,0,0,1-38.139,7.642c-19.611-.27-36.95-6.067-51.972-16.991-4.314-3.137-8.273-6.642-12.411-9.963-1.8-1.446-3.565-2.94-5.483-4.26-4.8-3.309-7.918-3.159-12.1.677-2.055,1.887-3.822,4.011-5.736,6.016-2.784,2.915-5.471,5.908-8.4,8.706a19.946,19.946,0,0,1-15.079,5.451c-6.9-.244-13.794-.5-20.694-.561-9.531-.085-19.066-.1-28.6.052-9.8.16-19.578.949-29.4.242-14.663-1.056-28.093-4.958-39.672-12.984-4.462-3.093-8.56-6.594-12.715-10.009-3.3-2.712-6.35-5.651-9.657-8.355a47.1,47.1,0,0,0-15.188-8.188c-3.855-1.271-6.8-.527-8.879,2.54a22.944,22.944,0,0,0-2.816,5.867c-1.43,4.485-2.528,9.05-3.877,13.555-5.025,16.776-13.912,31.753-28.34,43.852-22.222,18.634-48.482,25.97-78.977,20.1-14.929-2.872-27.832-9-37.953-19.188a78.975,78.975,0,0,1-14.346-20.319c-2.012-3.975-3.841-8.025-6-11.937a31.991,31.991,0,0,0-4.466-6.188,10.879,10.879,0,0,0-9.746-3.195,41.565,41.565,0,0,0-6.833,1.514c-2.822.862-5.553,1.954-8.309,2.974a36.073,36.073,0,0,1-12.992,2.211q-11.987-.1-23.976.086c-10.265.156-20.523.511-30.611,2.4a37.656,37.656,0,0,0-12.6,4.3c-5.2,3.112-7.138,7.415-5.77,12.778a24.829,24.829,0,0,0,3.93,8.033,62.467,62.467,0,0,0,11.137,11.932c4.7,3.949,9.611,7.714,14.369,11.615a56.2,56.2,0,0,1,5.659,5.114c2.605,2.813,1.646,4.6-2.506,5.046a7.931,7.931,0,0,1-1.086.075c-3.352-.1-6.728-.035-10.05-.367A144.711,144.711,0,0,1,4.882,1115.5,24.157,24.157,0,0,0,2,1115.016Z"
                transform="translate(-2 -724.765)"
                fill="#ffc400"
              />
              <path
                id="Path_2"
                data-name="Path 2"
                d="M2,915.426v-16.6c1.448.036,2.9.118,4.344.1,18.07-.2,36.139-.543,54.209-.568,9.344-.013,18.708.312,28.028.9a87.832,87.832,0,0,0,21.359-1.18,136.194,136.194,0,0,1,25.952-2.236c11.441.137,22.888.03,34.324.285A135.013,135.013,0,0,1,185.9,897.5a49,49,0,0,1,9.887,2.54c14.511,5.295,22.575,14.859,24.416,28.449,1.516,11.182-4.44,21.645-15.756,27.045a58.872,58.872,0,0,1-9.8,3.469c-3.714,1.014-7.613,1.507-11.35,2.467a40.966,40.966,0,0,0-8.3,2.843,8.374,8.374,0,0,0-4.832,9.558c.632,3.736,2.788,6.807,5.709,9.511a33.855,33.855,0,0,0,11.929,6.91c17.085,6.011,33.787,4.89,49.885-2.6,14.917-6.942,25.018-17.781,31.875-31.06,4.314-8.356,6.516-17.214,8.2-26.2.933-4.986,1.866-9.976,3.843-14.755a21.965,21.965,0,0,1,5.794-8.485,14.188,14.188,0,0,1,12.432-3.321c.888.16,1.78.3,2.667.469,11.3,2.107,22.1,5.629,32.965,8.951,10.012,3.059,19.982,6.265,30.148,8.887a100.272,100.272,0,0,0,34.224,2.648,131.286,131.286,0,0,0,24.9-4.9c7.057-2.053,14.01-4.387,21.119-6.286a32.268,32.268,0,0,0,12.939-6.731c1.552-1.33,3.081-2.686,4.527-4.1,6.936-6.791,13.7-13.719,20.788-20.387A191.091,191.091,0,0,1,524.825,852.6a211.082,211.082,0,0,1,36.153-14.792c17.234-5.455,34.3-11.228,50.726-18.382a129.441,129.441,0,0,1,23.726-7.586c4.847-1.073,9.749-2,14.794-1.48,6.192.644,7.916,3.237,5.33,8.161-1.316,2.505-3.076,4.831-4.581,7.263-2.107,3.4-4.366,6.753-6.167,10.278a18.612,18.612,0,0,0-1.886,6.616c-.469,4.913,2.091,7.52,7.684,8.379a29.733,29.733,0,0,0,11.841-.918q8.362-2.105,16.57-4.67c11.732-3.664,23.568-6.917,36.034-8.091a96.643,96.643,0,0,1,24.689.475,70.086,70.086,0,0,1,27.452,11.026c12.9,8.472,25.66,17.111,37.395,26.824q5.33,4.411,10.722,8.765c1.316,1.057,2.761,1.992,4.148,2.983v19.441c-3.367-2.512-6.872-4.9-10.078-7.559q-17.557-14.563-36.145-28.115c-2.854-2.071-5.857-4-8.932-5.821a57.8,57.8,0,0,0-20.28-7.213,91.464,91.464,0,0,0-25.759-.341,119.1,119.1,0,0,0-27.594,7.107c-8.5,3.187-16.9,6.585-25.458,9.663a26.456,26.456,0,0,0-11.79,8.1,46.358,46.358,0,0,0-6.7,11.087c-2.1,4.8-4.056,9.638-6.047,14.469-3.409,8.272-7.291,16.345-12.965,23.678a65.217,65.217,0,0,1-31.067,22.6c-16.662,5.679-33.078,5.191-48.768-2.631-10.474-5.222-17.528-12.924-20.258-23.308-2.1-7.974-.734-15.7,2.7-23.207,3.711-8.112,9.432-15.1,16.182-21.484,9.018-8.529,19.287-15.826,30.018-22.618,9.175-5.808,18.613-11.3,27.869-17.013,3.4-2.1,6.7-4.336,9.866-6.7a14.545,14.545,0,0,0,3.492-3.887c1.526-2.419.365-4.109-2.765-4.061a29.844,29.844,0,0,0-6.172.742c-5.351,1.23-10.66,2.6-15.969,3.96-11.746,3.011-23.563,5.833-35.2,9.127-22.508,6.369-42.113,16.886-58.436,31.9A162.268,162.268,0,0,0,478.56,898.58c-3.878,5.25-7.635,10.571-11.706,15.706a76.587,76.587,0,0,1-7.77,8.214,19.23,19.23,0,0,1-10.993,4.778c-3.5.447-6.968,1.072-10.428,1.714-10.286,1.909-20.433,4.363-30.887,5.619a104.845,104.845,0,0,1-37.744-2c-8.718-2.13-16.74-5.627-24.671-9.317a210.368,210.368,0,0,0-30.552-11.836c-4.549-1.309-9.218-2.349-13.9-3.246a10.905,10.905,0,0,0-8.587,2.191,13.434,13.434,0,0,0-4.834,5.927,82.034,82.034,0,0,0-3.239,10c-1.44,5.861-2.321,11.833-3.931,17.655-4.288,15.506-12.635,29.1-26.52,39.724-17.631,13.491-38.025,18.614-61.169,14.165-10.1-1.942-19.277-5.662-26.455-12.39-6.887-6.456-10.794-13.975-10.174-22.98.563-8.185,6.254-13.519,15.625-14.429,3.147-.305,6.342-.223,9.512-.357,3.713-.157,7.461-.124,11.126-.582,9.914-1.24,16.911-6.729,18.708-14.7,1.651-7.325-.354-13.966-5.847-19.716-4.337-4.542-10.1-7.123-16.552-8.631-8.133-1.9-16.362-1.483-24.615-.775-7.131.611-14.266,1.24-21.417,1.622a121.681,121.681,0,0,0-33.685,6.109c-3.789,1.316-7.619,2.6-11.54,3.557a34.724,34.724,0,0,1-8.558,1.082c-7.714-.094-15.421-.544-23.133-.771C43.743,914.293,22.864,914.264,2,915.426ZM576,951.05a49.4,49.4,0,0,0,17.291-3.128A49.974,49.974,0,0,0,622.1,921.785c3.568-7.435,5.071-15.284,6.006-23.243,1.043-8.873,2.155-17.74,3.176-26.615a74.485,74.485,0,0,0,.712-9.2c-.035-3.536-1.887-5.2-5.877-5.672a29.433,29.433,0,0,0-5.418-.112,69.855,69.855,0,0,0-20.861,5.092c-13.1,5.161-24.643,12.378-35.472,20.514a90.344,90.344,0,0,0-17.06,16.2,44.121,44.121,0,0,0-8.215,15.631c-3.849,14.167,3.363,27.155,18.519,33.292A47.625,47.625,0,0,0,576,951.05Z"
                transform="translate(-2 -618.589)"
                fill="#ffc400"
              />
              <path
                id="Path_3"
                data-name="Path 3"
                d="M819.453,1721.2v16.6c-2.261.55-4.5,1.185-6.787,1.635a136.724,136.724,0,0,1-48.929,1.212c-9.675-1.586-18.932-4.382-28.155-7.3q-7.034-2.227-14.2-4.124a34.074,34.074,0,0,0-24.223,2.227c-3.57,1.719-7.261,3.268-10.978,4.736-14.352,5.668-29.417,6.935-44.766,4.563-17.42-2.692-34.766-5.774-52.079-8.955a156.055,156.055,0,0,0-39.509-2.417,437.015,437.015,0,0,1-53.894.19c-21.578-1.127-43.166-1.834-64.79-1.83a245.2,245.2,0,0,0-53.855,6.2c-8.522,1.914-16.9,4.31-25.374,6.392a93.246,93.246,0,0,1-38.8,1.713c-3.559-.626-7.136-1.176-10.69-1.82-5.507-1-11.107-1.735-16.483-3.125-16.665-4.308-33.742-6.042-51.012-6.892q-12.776-.628-25.517-1.749c-11.928-1.066-23.848-2.056-35.857-1.991-6.628.036-13.268.148-19.885-.109-16.051-.624-32.108-1.249-48.131-2.247-13.122-.817-26.2-2.189-39.3-3.282-8.132-.679-16.263-1.391-24.409-1.917-13.428-.866-26.607,1.229-39.827,2.77v-21.338c.537.079,1.08.133,1.608.241,10.777,2.2,21.559,4.373,32.325,6.609a439.257,439.257,0,0,0,66.684,8.664c16.965.879,33.949.521,50.931.436,11.437-.057,22.885.043,34.313.419a262.046,262.046,0,0,0,42.638-1.925c10.143-1.324,20.243-2.9,30.382-4.246a94.193,94.193,0,0,1,30.072.35c5.939,1.124,11.8,2.563,17.691,3.88A82.844,82.844,0,0,0,337,1716.5c7.275-.894,14.545-1.9,21.745-3.165a282.663,282.663,0,0,1,41.016-4.53c15.806-.453,31.6-.157,47.389.419,16.156.589,32.248,1.823,48.334,3.235,10.654.935,21.345,1.716,32.041,2.068,10.337.341,20.705-.113,31.052.081a190.251,190.251,0,0,1,21.436,1.289c11.385,1.514,22.668,3.625,33.981,5.539,8.106,1.372,16.152,3.056,24.3,4.2,10.711,1.506,25.057-1.448,32.734-13.23,1.522-2.337,2.953-4.72,4.538-7.024,2.189-3.183,4.365-6.382,6.768-9.442a25.311,25.311,0,0,1,8.245-6.806,18.7,18.7,0,0,1,15.906-1.087,44.959,44.959,0,0,1,7.73,3.93c3.534,2.213,6.866,4.67,10.264,7.045a160.62,160.62,0,0,0,18.722,11.416c19.511,10.007,40.429,14.708,63.113,12.6C810.715,1722.629,815.073,1721.823,819.453,1721.2Z"
                transform="translate(-2 -1287.323)"
                fill="#ffc400"
              />
              <path
                id="Path_4"
                data-name="Path 4"
                d="M819.453,1551.281v18.967c-.987.094-1.984.137-2.958.289a118.076,118.076,0,0,1-31.168,1.209c-17.874-1.955-33.475-8.162-46.271-19.282-3.841-3.339-7.112-7.169-10.738-10.7-3.018-2.94-6.02-5.914-9.313-8.61a25.15,25.15,0,0,0-11.232-5.088c-6.809-1.329-13.156-.085-19.2,2.692a42.641,42.641,0,0,0-16.266,13.035c-2.758,3.607-5.077,7.47-7.545,11.242-1.975,3.018-3.671,6.19-5.852,9.089-6.323,8.4-15.411,11.752-26.717,10.184-10.124-1.4-20.2-3.095-30.276-4.741s-20.154-3.371-30.436-3.726c-8.979-.31-17.964-.636-26.948-.686-13.729-.076-27.389-.947-41.032-2.158-11.648-1.034-23.28-2.251-34.951-3.029q-30.013-2-60.127-2.287a227.417,227.417,0,0,0-31.506,1.622c-7.989,1.032-15.957,2.194-23.957,3.152a83.492,83.492,0,0,1-33.886-2.5q-7.735-2.282-15.463-4.579a64.946,64.946,0,0,0-33.26-1.3c-8.689,1.962-17.34,4.111-25.858,6.569a249.743,249.743,0,0,1-64.88,10.027q-31.586.586-63.174,1.066a336.544,336.544,0,0,1-91.323-10.865c-7.734-2-15.413-4.172-23.117-6.266v-5.216c.947.254,1.917.455,2.837.77,30.695,10.489,62.432,15.893,95.494,14.818,8.345-.271,16.7-.444,25.028-.967q12.751-.8,25.445-2.235c7.921-.9,15.806-1.874,23.812-2.16,9.515-.339,19.044-.8,28.509-1.685a143.582,143.582,0,0,0,42.394-10.726,199.371,199.371,0,0,0,28.526-15.2c3.095-1.933,6.288-3.751,9.481-5.56a13.547,13.547,0,0,1,8.312-1.732,47.28,47.28,0,0,1,8.27,1.335c4.963,1.494,9.827,3.264,14.64,5.1,5.4,2.062,10.653,4.42,16.055,6.479a68.1,68.1,0,0,0,24.561,4.741c7.254-.021,14.538-.178,21.751-.79a334.819,334.819,0,0,1,45.439-.5q21.345,1.089,42.689,2.214c7.341.383,14.691.673,22.02,1.187,10.587.741,21.143,1.9,31.743,2.419,15.135.737,30.295,1.183,45.451,1.506,14.713.314,29.4.861,44.04,2.21a122.231,122.231,0,0,0,21.484.206c6.236-.524,11.314-2.673,15.041-7.114,1.178-1.4,2.421-2.765,3.607-4.163,1.941-2.288,3.817-4.619,5.8-6.882a95.638,95.638,0,0,1,25.058-20.539,71.93,71.93,0,0,1,18.416-7.526c13.4-3.271,25.154-.778,35.09,7.737a62.847,62.847,0,0,1,6.649,6.574c2.835,3.279,5.347,6.768,8.074,10.119,2.83,3.479,5.538,7.058,8.677,10.318,7.575,7.867,17.321,12.57,28.934,14.406C796.963,1555.581,808.273,1554.171,819.453,1551.281Z"
                transform="translate(-2 -1147.279)"
                fill="#ffc400"
              />
              <path
                id="Path_5"
                data-name="Path 5"
                d="M2,412.282V396.16c.9,0,1.81-.022,2.714-.007,6.807.106,13.614.261,20.422.319,7.355.063,14.71.015,22.065.06a57.1,57.1,0,0,1,14.25,1.771c10.681,2.822,21.371,5.635,31.933,8.773a79.805,79.805,0,0,1,28.588,14.8,171.566,171.566,0,0,1,13.085,12.362c3.99,4.094,7.605,8.464,11.4,12.7a55.215,55.215,0,0,0,21.495,14.934A39.828,39.828,0,0,1,183.3,472.223a42.859,42.859,0,0,0,18,11.528c4.461,1.543,8.987,3.01,13.608,4.116a67.58,67.58,0,0,0,9.933,1.217,11.521,11.521,0,0,0,3.476-.435c2.267-.527,3.608-1.895,3.689-3.919a22.281,22.281,0,0,0-.432-4.7c-.355-2.026-1.068-4.014-1.3-6.047-.434-3.836,1.336-5.989,5.65-6.92a36.721,36.721,0,0,1,5.922-.672,76.223,76.223,0,0,1,20.2,2.125c13.3,2.934,26.657,5.452,40.437,6.067a186.906,186.906,0,0,0,37.982-1.718c12.406-1.984,23.489-6.057,31.412-15.1a6.622,6.622,0,0,1,.557-.52,35.6,35.6,0,0,1,8.932-6.154c5.051-2.33,10.006-4.838,15.177-6.945A438.4,438.4,0,0,0,440.529,423.3c4.233-2.3,8.515-4.557,12.937-6.561a90.7,90.7,0,0,1,11.219-4.224,21,21,0,0,1,16.019,1.378c2.584,1.316,5.082,2.759,7.621,4.142,2.385,1.3,4.72,2.675,7.167,3.879a23.216,23.216,0,0,0,16.049,1.851,82.874,82.874,0,0,0,11.77-3.637A385.784,385.784,0,0,0,571.662,396.9c5.208-3.03,10.4-6.078,15.65-9.058a241.884,241.884,0,0,1,47.658-21.212,203.292,203.292,0,0,0,26.63-10.21,121.141,121.141,0,0,1,27.1-9.116c11.116-2.322,22.253-4.586,33.451-6.582a105.624,105.624,0,0,0,35.051-12.5c5.05-2.946,9.942-6.1,14.878-9.193,4.421-2.77,8.728-5.683,13.232-8.344a37.228,37.228,0,0,1,7.445-3.4c4.971-1.6,8.3.181,9.421,4.715a14.6,14.6,0,0,1-1.9,11.046,48.322,48.322,0,0,1-6.008,8.429c-3.609,3.951-7.686,7.577-11.5,11.39a46.731,46.731,0,0,0-4.717,5.2c-2.883,3.925-2.373,7.386,1.418,10.713a22.745,22.745,0,0,0,3.778,2.7,56.057,56.057,0,0,0,5.916,2.915,85.783,85.783,0,0,0,30.285,6.166v20.39c-1.071-.16-2.143-.314-3.214-.48-9.652-1.5-19.273-3.109-28.716-5.453a302.171,302.171,0,0,1-44.04-15.073q-9.935-4.165-19.992-8.11c-12.129-4.745-24.557-5.041-37.239-1.809-8.586,2.188-16.582,5.55-24.622,8.871-6.225,2.572-12.471,5.169-18.923,7.251a280.163,280.163,0,0,0-36.9,14.6c-9.1,4.442-18.084,9.087-26.972,13.851-20.588,11.034-42.252,20.344-63.561,30.221a68.365,68.365,0,0,1-9.3,3.341c-4.868,1.442-9.927,2.224-15,1.127A77.128,77.128,0,0,1,481,436.216c-4.017-1.459-7.868-3.269-11.9-4.7a31.948,31.948,0,0,0-21.266-.171c-2.626.872-5.244,1.795-7.763,2.876a262.716,262.716,0,0,0-26.215,13.075,52.812,52.812,0,0,0-16.976,14.5c-5.329,7.294-12.923,12.017-22.094,15.1-10.882,3.654-22.246,5.154-33.761,5.977a212.741,212.741,0,0,1-26.673.213,300.089,300.089,0,0,1-30.568-2.891c-7.764-1.225-15.462-2.766-23.2-4.106a21.666,21.666,0,0,0-8.093-.371c-3.022.612-4.6,2.073-4.714,4.764a31,31,0,0,0,.333,4.956c.309,2.591.926,5.168,1.008,7.76a18.4,18.4,0,0,1-.836,6.055c-.692,2.193-2.679,3.4-5.371,3.216a24.759,24.759,0,0,1-5.3-.9c-3.6-1.073-7.129-2.342-10.689-3.526-11.273-3.747-22.562-7.459-33.817-11.246a60.814,60.814,0,0,1-21.229-12.157,56.168,56.168,0,0,0-14.633-9.368,48.877,48.877,0,0,1-12.175-7.524c-5.027-4.338-9.972-8.755-14.761-13.291a97.014,97.014,0,0,0-41.08-23.272c-6.217-1.751-12.433-3.506-18.676-5.188a78.122,78.122,0,0,0-19.266-2.873c-9.624-.135-19.251-.11-28.874-.257C15.6,412.757,8.8,412.482,2,412.282Z"
                transform="translate(-2 -234.464)"
                fill="#ffc400"
              />
              <path
                id="Path_6"
                data-name="Path 6"
                d="M2,84.508c2.037-.661,4.13-1.216,6.1-2a27.961,27.961,0,0,1,22.548.477c2.1.933,4.24,1.815,6.266,2.86a93.171,93.171,0,0,0,25.248,8.582c3.806.734,7.566,1.662,11.326,2.564a106.094,106.094,0,0,1,33.25,14.808,277.254,277.254,0,0,1,25.853,19.608q6.01,4.99,11.9,10.086a132.394,132.394,0,0,1,20.051,21.479c2.611,3.516,5.146,7.079,7.9,10.507a75.165,75.165,0,0,0,6.428,7.037c4.466,4.3,10.143,5.849,16.728,5.261a91.332,91.332,0,0,0,15.128-2.875,115.149,115.149,0,0,1,12.124-2.625c7.034-1.055,13.965.036,20.712,1.7,8.812,2.172,17.555,4.565,26.271,7.019a164.122,164.122,0,0,0,33.858,5.633,235.527,235.527,0,0,0,29.384.275c31.836-1.887,61.255-9.88,87.1-26.6,11.73-7.589,21.676-16.791,30.985-26.539,6.266-6.561,12.46-13.174,18.833-19.656a75.052,75.052,0,0,1,14.016-11.541,54.8,54.8,0,0,1,8.886-4.551,24.487,24.487,0,0,1,21.324,1.433c2.15,1.167,4.1,2.612,6.187,3.87,2.832,1.706,5.6,3.514,8.59,4.994a22.874,22.874,0,0,0,18.36,1.1,72.673,72.673,0,0,0,11.289-5.158,95.116,95.116,0,0,0,18.893-14.245c7.771-7.447,9.878-16.31,7.863-26.032a43.333,43.333,0,0,0-6.484-15.011c-3.429-5.2-7.182-10.246-10.676-15.418-2.895-4.285-5.723-8.609-8.384-13.006a30.207,30.207,0,0,1-3.935-10.3A12.969,12.969,0,0,1,559.5,6.266,45.637,45.637,0,0,0,562.773,2h32.7a30.808,30.808,0,0,0,2.538,1.907c3.116,1.9,6.446,3.562,9.382,5.648,5.43,3.857,9.247,8.685,10.184,14.9a58.884,58.884,0,0,1,.417,5.905c.255,5.2.31,10.411,1.455,15.561,2.747,12.348,9.707,22.179,22.369,28.627,8.886,4.524,18.639,6.046,28.779,5.9a122.5,122.5,0,0,0,36.87-6.548c18.853-6.234,35.307-15.354,48.04-29.228a107.152,107.152,0,0,1,10.162-9.23,64.856,64.856,0,0,1,13.977-8.984,31.143,31.143,0,0,1,17.865-2.792,112.7,112.7,0,0,1,21.946,5.362v7.587c-2.008-.728-3.973-1.57-6.033-2.159-3.356-.959-6.741-1.876-10.175-2.589a27.014,27.014,0,0,0-17.121,2.2,61.817,61.817,0,0,0-13.913,9.064c-4.449,3.724-8.743,7.59-13.1,11.4a104.118,104.118,0,0,1-20.446,14.1,175.922,175.922,0,0,1-45.984,16.246c-13.24,2.731-26.662,3.952-40.246,2.007a67.35,67.35,0,0,1-32.285-13.3c-5.746-4.445-9.734-9.831-11.121-16.442-1.107-5.275-1.917-10.6-2.635-15.931-.708-5.253-.806-10.58-1.753-15.795-1.891-10.405-8.994-17-20.6-19.849A22.565,22.565,0,0,0,568.46,6.922c-4.9,2.374-7.267,6.007-6.96,10.937a23.3,23.3,0,0,0,3.243,9.715,72.768,72.768,0,0,0,9.6,13.194c4.11,4.625,8.467,9.085,12.525,13.743a122.618,122.618,0,0,1,7.651,9.783,19.364,19.364,0,0,1,3.741,10.055c.692,11.787-3.142,22.26-12.916,30.6-5.953,5.08-12.381,9.769-18.9,14.308-4.732,3.3-9.874,6.169-14.986,9.022a43.752,43.752,0,0,1-11.755,4.3,18.946,18.946,0,0,1-12.926-1.269,80.289,80.289,0,0,1-8.083-4.794c-2.392-1.565-4.579-3.364-6.924-4.986a21.179,21.179,0,0,0-7.721-3.386,22.355,22.355,0,0,0-12.495,1.245,45.275,45.275,0,0,0-13.133,7.529c-5.643,4.577-11.124,9.309-16.544,14.086-6.061,5.341-11.865,10.906-17.983,16.2-11.52,9.959-24.058,18.779-38.62,25.231-24.4,10.812-50.445,16.272-77.65,17.645-8.959.452-17.978.4-26.951.122-7.237-.226-14.482-.925-21.659-1.81-9.428-1.163-18.765-2.886-28.193-4.054a94.625,94.625,0,0,0-32.705,1.477c-6.671,1.508-13.361,3-20.124,4.142-9.37,1.576-17.459-.664-23.753-7.089a47.629,47.629,0,0,1-4.946-5.646c-3.52-4.975-6.774-10.092-10.262-15.086-3.675-5.262-7.185-10.642-11.317-15.625-9.645-11.631-21.762-21.168-34.709-29.942a101.122,101.122,0,0,0-32.565-14.423c-3.577-.891-7.152-1.809-10.775-2.533a98.328,98.328,0,0,1-28.31-10.156c-2.223-1.222-4.579-2.259-6.877-3.378A29.639,29.639,0,0,0,10.893,94.7,90.666,90.666,0,0,1,2,96.836Z"
                transform="translate(-2 -2)"
                fill="#ffc400"
              />
              <path
                id="Path_7"
                data-name="Path 7"
                d="M819.453,1324.882c-3.118.508-6.216,1.167-9.359,1.492a30.575,30.575,0,0,1-20.432-5.051,58.486,58.486,0,0,1-11.442-10.1c-4.585-5.1-8.937-10.37-13.619-15.406-4.051-4.357-8.231-8.647-12.694-12.682a43.882,43.882,0,0,0-24.67-11.17,65.237,65.237,0,0,0-22.394,1.518,128.218,128.218,0,0,0-21.881,7.174c-6.443,2.739-12.849,5.553-19.152,8.527a85.068,85.068,0,0,0-8.855,5.081c-3.238,2.034-6.386,4.182-9.5,6.362-14.306,10.022-30.788,15.943-48.5,19.564a119.793,119.793,0,0,1-32.184,2.182,147.835,147.835,0,0,1-32.621-6.224c-3.6-1.082-7.185-2.22-10.8-3.278-1.89-.554-3.808-1.055-5.745-1.464a17.809,17.809,0,0,0-12.339,1.556,67.292,67.292,0,0,0-6.73,4.019,32.17,32.17,0,0,1-18.145,5.512c-13.189.3-26.321-.282-39.452-1.21-13.583-.96-27.185-1.394-40.821-1.2-7.254.1-14.533.036-21.771-.364a75.327,75.327,0,0,1-37.728-12.242,140.794,140.794,0,0,1-18.056-14.394c-3.561-3.268-7.1-6.56-10.777-9.726-3.454-2.971-5.356-2.751-7.819.934a65.665,65.665,0,0,0-4.065,7.228c-4.784,9.586-10.17,18.875-17.193,27.4a104.557,104.557,0,0,1-86.01,38.566,113.351,113.351,0,0,1-29.5-5.217,86.442,86.442,0,0,1-29.889-16.528c-3.787-3.185-7.41-6.519-11.239-9.664a74.606,74.606,0,0,0-7.515-5.454,16.83,16.83,0,0,0-11.085-2.557q-15.5,1.862-30.942,4.114a39.469,39.469,0,0,0-7.975,2.336,20.049,20.049,0,0,0-4.792,2.657c-2.913,2.15-3.852,5.007-2.687,8.138a18.939,18.939,0,0,0,3.113,5.48,84.638,84.638,0,0,0,6.864,7.034c2.577,2.444,5.361,4.723,7.933,7.17a15.1,15.1,0,0,1,2.746,3.506c1.161,2.076.52,3.853-1.958,4.665a39.181,39.181,0,0,1-7.63,1.563c-6.793.788-13.613.307-20.4-.147a166.414,166.414,0,0,1-33.617-5.552c-4.749-1.324-9.427-2.841-14.137-4.271v-2.371c.7.171,1.41.3,2.087.52A164.221,164.221,0,0,0,32.21,1359.3a114.617,114.617,0,0,0,20.34,1.19,24.388,24.388,0,0,0,4.034-.469c4.091-.879,4.835-2.673,2.232-5.618a38.261,38.261,0,0,0-4.453-4.149c-3.57-2.924-7.373-5.643-10.8-8.684-3.615-3.205-7.019-6.606-10.293-10.079a18.941,18.941,0,0,1-4.314-7.6c-1.456-4.824.17-8.8,4.983-11.521a26.8,26.8,0,0,1,6.348-2.656,102.419,102.419,0,0,1,11.645-2.364,238.755,238.755,0,0,1,29.857-1.911,58.212,58.212,0,0,0,17.882-2.641,45.824,45.824,0,0,1,5.5-1.352c5.111-1.021,9.6.053,13.141,3.433a61.326,61.326,0,0,1,5.686,6.338c2.779,3.512,5.32,7.166,8.064,10.7a76.606,76.606,0,0,0,17.559,17.064c19.413,13.078,41.564,17.153,65.488,14.074,19.407-2.5,35.776-10.544,49.635-22.484a96.407,96.407,0,0,0,27.144-38.409c1.994-5.075,3.538-10.283,5.457-15.382a26.049,26.049,0,0,1,3.1-6.014c1.76-2.455,4.154-2.952,7.03-1.461a47.489,47.489,0,0,1,7.677,4.856c3.008,2.392,5.659,5.122,8.485,7.688,4.019,3.649,7.909,7.42,12.12,10.894a74.134,74.134,0,0,0,35.695,16.254,142.321,142.321,0,0,0,29.024,1.416c13.441-.542,26.863-.205,40.293.4,9.787.442,19.591.617,29.389.852a19.658,19.658,0,0,0,12.275-3.877c1.949-1.415,3.757-2.977,5.622-4.479,1.932-1.555,3.81-3.164,5.792-4.669a14.261,14.261,0,0,1,15.161-1.794c3.081,1.333,6.014,2.924,9.006,4.411,5.513,2.74,10.847,5.805,16.561,8.177a99.811,99.811,0,0,0,56.217,6.461,114.739,114.739,0,0,0,50.5-21.577c5.479-4.148,10.762-8.491,16.11-12.768a58.31,58.31,0,0,1,15.5-9.112c3.4-1.312,6.706-2.811,10.083-4.171,9.659-3.89,19.517-7.3,30.015-9.087a65.473,65.473,0,0,1,24.06-.058,52.59,52.59,0,0,1,24.212,12.162c5.718,4.89,10.575,10.414,15.523,15.874,3.092,3.411,6.205,6.811,9.448,10.113a49.346,49.346,0,0,0,11.352,8.8,36.166,36.166,0,0,0,21.865,4.114Z"
                transform="translate(-2 -960.236)"
                fill="#ffc400"
              />
              <path
                id="Path_8"
                data-name="Path 8"
                d="M350.78,2c1.644,1.117,3.3,2.224,4.928,3.355A28.121,28.121,0,0,1,358.192,7.2c1.538,1.341,1.45,2.211-.514,3.132a39.578,39.578,0,0,1-5.486,2.071c-8.668,2.584-17.329,5.2-26.055,7.624C311.7,24.045,297.2,27.879,282.772,31.907c-3.7,1.034-7.267,2.463-10.857,3.79a5.188,5.188,0,0,0-3.189,2.412,8.051,8.051,0,0,0,1.9.826,36.006,36.006,0,0,0,5.131.491c19.343,0,38.688.1,58.027-.149,11.8-.153,23.528-1.512,35.22-2.911,10.246-1.226,20.463-2.661,30.728-3.743a43.23,43.23,0,0,1,10.28.263c5.077.7,7.158,3.637,5.709,7.929a38.33,38.33,0,0,1-3.679,7.348c-1.559,2.583-3.524,4.977-5.152,7.531-3.54,5.557-2.845,8.294,2.976,12.183,2.376,1.588,4.849,3.066,7.2,4.68a24.473,24.473,0,0,1,11.169,19.025c.9,11.189-2.739,21.412-9.147,30.952-8.436,12.559-20.578,21.763-35.109,28.679a115.6,115.6,0,0,1-39.775,10.71c-25.536,2.263-49.945-1.239-72.9-11.344a97.142,97.142,0,0,1-29.613-20.208c-8.8-8.751-14.185-18.812-16.231-30.272-.334-1.871-.776-3.729-1.22-5.584-1.272-5.32-4.949-8.73-11-10-3.784-.8-7.671-1.216-11.482-1.924a51.754,51.754,0,0,1-7.587-1.8c-4.542-1.588-6.5-4.556-6.14-8.807.105-1.257.389-2.5.609-3.751.152-.859.4-1.708.49-2.571.241-2.236-.734-3.179-3.31-2.82a36.626,36.626,0,0,0-6.545,1.552c-7.368,2.47-14.662,5.107-22.03,7.578-3.552,1.191-7.175,2.244-10.821,3.2-9.06,2.378-17.358.918-24.439-4.482a170.685,170.685,0,0,1-13.327-11.5c-6.721-6.319-13.111-12.906-19.826-19.229a126.686,126.686,0,0,0-20.945-16.18c-11-6.7-23.259-10.114-36.592-10.974a130.767,130.767,0,0,0-27.131.982A18.931,18.931,0,0,1,2,13.855V10.535c.625-.087,1.254-.158,1.875-.265a110.736,110.736,0,0,1,48.4,2.165,89.334,89.334,0,0,1,27.94,13.484c9.269,6.48,18.274,13.246,27.408,19.873a117.021,117.021,0,0,0,16.735,10.559,46.849,46.849,0,0,0,13.414,4.458A45.039,45.039,0,0,0,161.9,57.749c4.455-1.767,8.82-3.722,13.127-5.751a225.552,225.552,0,0,1,39.264-14.523c12.424-3.239,24.842-6.53,37.4-9.347,20.639-4.63,41.391-8.88,62.086-13.326q7.4-1.589,14.721-3.421c1.685-.419,3.553-.725,4.816-2.445a18.934,18.934,0,0,0-2.265-1.894c-2.153-1.316-4.4-2.515-6.576-3.8A11.333,11.333,0,0,1,322.986,2Zm34.963,40.86c-4.369.414-8.159.763-11.947,1.133-11.723,1.145-23.426,2.494-35.174,3.395-13.291,1.019-26.624,1.62-39.936,2.438A300.28,300.28,0,0,0,262.03,54.2c-9.779,1.823-19.422,4.077-28.507,7.793a43.448,43.448,0,0,0-7.9,4.142c-4.687,3.18-4.6,5.946-.06,9.234,1.6,1.162,3.281,2.253,4.845,3.454,3.156,2.424,4.5,5.495,3.965,9.133-.285,1.957-.644,3.908-1.056,5.847a36.061,36.061,0,0,0-.472,13.9c1.13,6.383,4.224,12.049,8.439,17.286,8.986,11.164,20.943,19.288,35.068,24.85a141.4,141.4,0,0,0,70.409,8.729c17.986-2.257,34.217-8.177,48.524-17.964,10.377-7.1,18.7-15.654,23.884-26.312,3.51-7.222,5.5-14.706,4.116-22.626a19.289,19.289,0,0,0-7.961-13.094,48.684,48.684,0,0,0-8.295-4.469c-2.9-1.284-6.047-2.144-9.034-3.291a46.747,46.747,0,0,1-6.3-2.772c-3.506-1.988-4.161-4.319-2.2-7.521,1.1-1.806,2.578-3.438,3.778-5.2a36.837,36.837,0,0,0,3.473-5.611c1.518-3.453-.052-5.751-4.249-6.368C390.1,42.987,387.628,42.984,385.743,42.86Z"
                transform="translate(-2 -2)"
                fill="#ffc400"
              />
              <path
                id="Path_9"
                data-name="Path 9"
                d="M819.453,1454.188c-3.247.706-6.474,1.491-9.745,2.1a57,57,0,0,1-16.5.917,39.473,39.473,0,0,1-21.505-8.875,69.789,69.789,0,0,1-10.357-10.966c-3.131-3.974-6.046-8.09-9.4-11.918a119.354,119.354,0,0,0-10.749-10.988,41.612,41.612,0,0,0-22.51-10.3,52.824,52.824,0,0,0-19.927,1.436,90.279,90.279,0,0,0-20.867,8.016c-7.71,4.156-15.192,8.635-22.7,13.065-3.455,2.038-6.725,4.31-10.11,6.438-2.134,1.342-4.319,2.621-6.492,3.914a33.7,33.7,0,0,1-16.84,4.793c-19.111.4-37.969,2.877-56.835,5.282-6.465.824-12.909,1.937-19.411,2.337a194.013,194.013,0,0,1-22.3.274c-20.76-1.121-41.544-1.542-62.318-2.258-11.516-.4-23.01-1.29-34.51-2.018a383.919,383.919,0,0,0-43.275-.466,151.664,151.664,0,0,1-23.393-.366,73,73,0,0,1-25.4-7.385c-6.36-3.2-12.525-6.7-18.858-9.951-3.827-1.961-7.826-3.666-11.721-5.528a7.572,7.572,0,0,0-8.514.981c-2.559,2.01-5.043,4.093-7.513,6.186-5.462,4.629-10.691,9.483-16.379,13.89a124.849,124.849,0,0,1-54.558,24.442,147.271,147.271,0,0,1-37.922,1.8c-8.768-.66-17.508-1.595-26.266-2.36-2.165-.189-4.35-.212-6.527-.284a20.85,20.85,0,0,0-11.811,2.9c-6.105,3.675-13.136,5.313-20.394,6.157a284.762,284.762,0,0,1-41.865,1.339A223.928,223.928,0,0,1,4.84,1463.9c-.908-.317-1.891-.472-2.84-.7v-1.9a216.612,216.612,0,0,0,41.952,10.675,224.106,224.106,0,0,0,38.533,2.042c6.152-.177,12.308-.719,18.415-1.407a31.107,31.107,0,0,0,7.731-2.155c3.885-1.526,5.711-4.281,5.2-8.045-.233-1.724-.613-3.434-.865-5.157-.852-5.8,2.087-8.341,8.653-7.043a70.614,70.614,0,0,1,11.032,3.315,220.046,220.046,0,0,0,24.461,7.962,156.666,156.666,0,0,0,36.765,4.867c27.69.168,51.885-7.979,72.84-23.611,8.592-6.41,15.908-13.842,22.832-21.59,2.619-2.931,5.251-5.855,7.969-8.716a25.988,25.988,0,0,1,3.512-2.957,4.452,4.452,0,0,1,5.264-.218c3.207,1.935,6.434,3.847,9.595,5.838,5.589,3.52,11.05,7.2,16.719,10.617a76.655,76.655,0,0,0,24.345,9.765,108.172,108.172,0,0,0,21.076,1.991c4.9.029,9.8-.14,14.7-.287,15.461-.462,30.842.649,46.24,1.616,11.044.694,22.109,1.25,33.176,1.5,11.343.259,22.7.112,34.051.072a147.738,147.738,0,0,0,24.041-2.466,134.632,134.632,0,0,1,21.393-1.718c7.988-.062,15.982-.076,23.961-.367,13.106-.478,25.946-2.624,38.716-5.107,1.329-.258,2.649-.556,3.987-.768a78.6,78.6,0,0,0,23.786-7.922c7.424-3.818,14.8-7.714,22.178-11.594a197.166,197.166,0,0,1,25.3-11.552c7.774-2.78,15.756-4.825,24.252-4.924a45.937,45.937,0,0,1,23.433,5.973,55.7,55.7,0,0,1,13.542,10.559c4.285,4.6,8.259,9.414,12.349,14.147,3.6,4.165,7.135,8.372,10.781,12.505a32.328,32.328,0,0,0,3.574,3.251c9.168,7.662,20.057,9.72,32.241,7.386,2.655-.509,5.256-1.229,7.888-1.834.6-.138,1.222-.2,1.833-.294Z"
                transform="translate(-2 -1063.936)"
                fill="#ffc400"
              />
              <path
                id="Path_10"
                data-name="Path 10"
                d="M2,217.013c5.709.232,11.128-1.306,16.667-2.094a39.08,39.08,0,0,1,21.228,2.489c2.2.936,4.436,1.825,6.571,2.866a115.708,115.708,0,0,0,26.812,9.077c4.052.861,8.047,1.932,12.041,2.987,15.253,4.031,28.191,11.437,39.955,20.625,12.387,9.675,21.987,21.167,29.971,33.794,3.454,5.463,7.136,10.824,10.913,16.124a37.918,37.918,0,0,0,9.191,9.312,32.422,32.422,0,0,0,25,5.493c5.5-.978,10.909-2.373,16.355-3.6a106.385,106.385,0,0,1,34.047-1.588c17.6,1.747,35.215,3.206,52.967,2.286,9.872-.511,19.787-.662,29.611-1.563,26.93-2.47,52.834-8.243,76.9-19.372a156.7,156.7,0,0,0,32.243-20.5c9.145-7.336,17.986-14.959,27.12-22.306a126.842,126.842,0,0,1,12.642-8.98,45.174,45.174,0,0,1,9.616-4.337,17.761,17.761,0,0,1,16.172,2.236c2.426,1.656,4.66,3.524,7.065,5.2,2.473,1.728,4.96,3.463,7.6,4.986a18.167,18.167,0,0,0,15.344,1.525,70.851,70.851,0,0,0,10.393-4.089,177.725,177.725,0,0,0,16.065-9.325c8.363-5.565,16.439-11.458,24.618-17.232a50.271,50.271,0,0,0,12.678-12.905c1.341-1.971,2.657-3.959,4.1-5.876a35.9,35.9,0,0,1,3.421-3.976,9.982,9.982,0,0,1,9.059-2.793c2.933.491,5.842,1.139,8.711,1.867a174.624,174.624,0,0,0,18.721,4.11,119.244,119.244,0,0,0,24.988.667c23.227-1.633,44.9-7.921,65.487-17.191a123.432,123.432,0,0,0,28.855-18.479c4.436-3.734,8.859-7.5,13.566-10.964a75.579,75.579,0,0,1,10.481-6.336,24.42,24.42,0,0,1,18.387-1.6c4.028,1.176,7.935,2.668,11.9,4.019v6.164c-3.1-1.306-6.134-2.736-9.3-3.892a23.212,23.212,0,0,0-17.886.776,63.467,63.467,0,0,0-12.732,7.671c-5.271,4-10.4,8.134-15.7,12.1-14.023,10.492-30.117,17.759-47.449,23.18a223.062,223.062,0,0,1-55.731,10.236c-8.593.426-17.24.021-25.862-.022-1.633-.008-3.266-.128-4.9-.126-6.852,0-12.9,1.91-17.707,6.2-8.159,7.283-17.566,13.211-26.9,19.246-7.723,5-15.288,10.176-22.957,15.236a128.534,128.534,0,0,1-20.92,11.5,62.072,62.072,0,0,1-8.082,2.776,18.276,18.276,0,0,1-14.34-1.788c-3.219-1.9-6.176-4.137-9.2-6.273-2.114-1.492-4.077-3.149-6.234-4.59a16.955,16.955,0,0,0-13.927-2.171,35.069,35.069,0,0,0-11.376,4.973c-6.251,4.192-12.368,8.541-18.427,12.943-7.945,5.771-15.682,11.759-23.682,17.47-17.612,12.572-37.768,20.821-59.559,26.28a393.6,393.6,0,0,1-46.82,8.613c-12.123,1.518-24.253,3.013-36.331,4.771a101.178,101.178,0,0,1-29.521-.309c-6.793-1-13.617-1.917-20.469-2.507a89.467,89.467,0,0,0-30.393,2.9c-3.992,1.04-8.04,1.939-12.107,2.728a29.388,29.388,0,0,1-11.337-.383c-9.46-1.865-17.4-5.931-23.294-12.672-3.234-3.7-6.168-7.617-8.993-11.568-3.931-5.5-7.533-11.174-11.455-16.677a110.463,110.463,0,0,0-22.241-23.229c-12.442-9.678-26.9-16.057-42.917-19.79a191.658,191.658,0,0,1-31.193-9.787,48.361,48.361,0,0,0-22.247-3.541c-3.44.225-6.873.548-10.315.721-4.978.251-9.963.405-14.945.6Z"
                transform="translate(-2 -112.219)"
                fill="#ffc400"
              />
              <path
                id="Path_11"
                data-name="Path 11"
                d="M2,773.7c19.869,1.175,39.756.247,59.633.326,16.335.064,31.817,3.266,46.89,8.458,8.6,2.964,17.271,5.79,25.918,8.658a301.665,301.665,0,0,0,46.394,11.03,117.566,117.566,0,0,1,23.4,6.111c11.78,4.543,21.19,11.477,28.123,20.952a139.185,139.185,0,0,1,12.668,21.734,49.882,49.882,0,0,0,3.136,5.775c1.957,2.964,4.35,3.249,6.912.7a23.02,23.02,0,0,0,4.148-5.516c2.183-4.16,4.148-8.414,5.993-12.7,3.059-7.1,6.027-14.237,10.482-20.79a43.226,43.226,0,0,1,5.378-6.518c2.9-2.852,6.7-3.783,11.087-3.333,12.271,1.26,24.324,3.545,36.415,5.662a245.1,245.1,0,0,0,32.035,3.968c18.306.765,36.3-.739,53.5-6.628a182.935,182.935,0,0,0,17.215-7.067A265.7,265.7,0,0,1,456.893,794a121.833,121.833,0,0,0,15.535-6.821c9.732-4.915,19.436-9.891,28.9-15.181a400.25,400.25,0,0,1,57.094-26.5c12.385-4.558,24.173-10.161,36.024-15.663,16.122-7.485,32.785-13.951,50.38-18.339,8.352-2.083,16.932-3.493,25.441-5.075,6.028-1.121,12.085-2.161,18.175-2.986a70.266,70.266,0,0,1,32.891,3.186,185.616,185.616,0,0,1,18.766,7.534c13.612,6.485,27.071,13.218,40.489,20.005a271.775,271.775,0,0,1,31.475,19.1c2.408,1.659,4.923,3.2,7.39,4.795v11.38c-1.016-.633-2.074-1.22-3.04-1.907-5.975-4.251-11.764-8.717-17.937-12.738-6.387-4.16-13.017-8.064-19.762-11.775-9.9-5.445-20.008-10.595-30-15.915a216.533,216.533,0,0,0-29.1-13.383,77.894,77.894,0,0,0-30.826-4.809c-6.872.394-13.712,1.248-20.557,1.964-23.324,2.438-44.874,9.714-65.5,19.02q-27.218,12.28-55.342,22.794a258.66,258.66,0,0,0-42.185,20.642q-18.99,11.317-37.979,22.633a112.279,112.279,0,0,1-19.044,9.118c-5.761,2.1-11.282,4.726-16.811,7.28a120.851,120.851,0,0,1-33.706,10.432,153.321,153.321,0,0,1-30.933,1.25,249.043,249.043,0,0,1-32.755-4.565q-16.066-3.12-32.158-6.141c-2.568-.48-5.182-.81-7.794-1.067a13.992,13.992,0,0,0-12.072,4.3,49.564,49.564,0,0,0-5.749,7.45c-4.055,6.423-6.128,13.483-8.217,20.519-2.02,6.8-3.956,13.63-7.175,20.109a50.043,50.043,0,0,1-9.6,13.7,28.857,28.857,0,0,1-8.318,6.045,19.181,19.181,0,0,1-5.106,1.506c-2.14.3-3.509-.776-3.63-2.667a12.068,12.068,0,0,1,.348-3.522c.937-3.943,2.088-7.849,2.947-11.8,1.92-8.837.689-17.447-2.738-25.875-5.7-14.028-15.609-24.844-31.407-31.167a83.439,83.439,0,0,0-17.591-4.885c-7.933-1.294-15.961-2.179-23.848-3.646q-18.758-3.487-37.371-7.555c-8.881-1.948-17.6-4.446-26.438-6.552A130.717,130.717,0,0,0,67.907,784.7c-12.985-.021-25.971.271-38.956.28-8.44.006-16.881-.253-25.321-.389-.543-.009-1.086.011-1.63.018Z"
                transform="translate(-2 -536.608)"
                fill="#ffc400"
              />
              <path
                id="Path_12"
                data-name="Path 12"
                d="M2,612.586c7.621.2,15.241.461,22.864.574,9.169.136,18.341.092,27.51.22a90.231,90.231,0,0,1,22.981,3.552c5.013,1.394,10,2.868,14.967,4.377a104.3,104.3,0,0,1,36.6,19.6c4.21,3.484,8.411,7,12.9,10.2a113.97,113.97,0,0,0,11.987,7.37,100.794,100.794,0,0,1,13.56,8.315,84.721,84.721,0,0,0,26.2,13.269c8.346,2.66,16.625,5.484,24.887,8.338a140.835,140.835,0,0,1,20.589,9.14,56.83,56.83,0,0,0,7.424,3.467c5.117,1.856,8.935.35,10.757-4.213a18.488,18.488,0,0,0,1.24-5.549c.193-2.833.013-5.684.012-8.528a45.962,45.962,0,0,1,.086-4.973c.379-3.5,2.542-5.276,6.6-5.342a28.658,28.658,0,0,1,5.67.5,377.128,377.128,0,0,0,50.415,5.83c18.731.934,37.4.473,55.736-3.578a93.225,93.225,0,0,0,16.113-5.039,51.637,51.637,0,0,0,18.557-12.912c2.079-2.3,4.088-4.643,6.229-6.894,6.586-6.923,14.878-11.755,24.512-14.875,9.052-2.932,18.189-2.467,27.323-.324,3.592.843,7.146,1.81,10.7,2.755a40.271,40.271,0,0,0,24.784-.943c5.754-2.126,11.43-4.464,16.932-7.044,26.285-12.33,52.6-24.6,78.409-37.7a312.4,312.4,0,0,1,48.333-19.544,161.986,161.986,0,0,0,15.811-6.329A144.428,144.428,0,0,1,681.41,559.3a65.147,65.147,0,0,1,35.351-.05c9.02,2.486,17.642,5.823,26.282,9.126,12.628,4.828,25.137,9.937,38.307,13.575,9.509,2.627,19.153,4.885,28.733,7.321,3.13.8,6.246,1.634,9.369,2.452v8.061c-10.849-4.287-22.432-6.731-33.642-10.113-14.525-4.382-28.327-10.214-42.3-15.712a209.339,209.339,0,0,0-30.31-9.847,63.729,63.729,0,0,0-37.776,2.686c-4.062,1.561-8.017,3.352-11.928,5.189a131.765,131.765,0,0,1-17.419,6.673,355.924,355.924,0,0,0-51.122,20.514q-39.234,19.056-79.007,37.235c-4.741,2.158-9.6,4.131-14.45,6.091a51.557,51.557,0,0,1-27.63,3.09,70.15,70.15,0,0,0-22.484.128,53.684,53.684,0,0,0-21.862,8.621c-3.266,2.26-6.472,4.605-9.511,7.092-13.86,11.343-30.571,17.294-49.094,19.917a237.652,237.652,0,0,1-47.523,1.431c-15.763-.935-31.413-2.732-47-4.985a48.279,48.279,0,0,0-5.66-.623c-4.9-.123-7.465,1.7-8.205,5.944-.529,3.039-.594,6.138-1.088,9.183a36.919,36.919,0,0,1-1.837,7.617,17.126,17.126,0,0,1-3.517,5.269c-2.389,2.535-5.6,3.071-9.11,1.867a23.055,23.055,0,0,1-3.387-1.5,33.563,33.563,0,0,1-3.795-2.3c-11.564-8.34-24.91-13.777-38.911-18.153-5.549-1.734-11.126-3.4-16.658-5.174a95.836,95.836,0,0,1-20.815-9.706c-6.306-3.859-12.822-7.457-19.177-11.256-3.888-2.324-7.687-4.765-11.449-7.241-2.532-1.667-4.988-3.431-7.382-5.248C108.6,633.714,88.6,626.783,67.229,622.4c-7.206-1.478-14.595-1.493-21.946-1.565-11.53-.113-23.062-.077-34.593-.174-2.9-.024-5.794-.318-8.691-.488Z"
                transform="translate(-2 -425.284)"
                fill="#ffc400"
              />
              <path
                id="Path_13"
                data-name="Path 13"
                d="M819.453,243.5a44.606,44.606,0,0,0-7.762-8.459c-5.066-4.188-10.779-5.146-16.992-2.42a97.823,97.823,0,0,0-10.9,5.781c-3.435,2.058-6.687,4.357-9.92,6.657a169.454,169.454,0,0,1-63.984,27.85c-11.194,2.364-22.309,5.009-33.468,7.5a184.91,184.91,0,0,0-24.416,7.338q-8.755,3.267-17.641,6.267a257.659,257.659,0,0,0-52.354,24.578c-4.676,2.867-9.312,5.782-13.961,8.682a241.139,241.139,0,0,1-34.925,17.886,65.91,65.91,0,0,1-15.637,4.72,20.84,20.84,0,0,1-13.107-2.048c-2.71-1.428-5.245-3.111-7.815-4.732-2.278-1.437-4.467-2.98-6.749-4.413a17.752,17.752,0,0,0-15.257-1.921,64.081,64.081,0,0,0-9.674,3.742c-5.03,2.516-9.885,5.307-14.738,8.082-5.766,3.3-11.426,6.733-17.176,10.051a233.2,233.2,0,0,1-48.314,20.532c-7.1,2.182-14.118,4.564-21.127,6.957a64.554,64.554,0,0,0-16.716,8.34c-9.149,6.525-19.867,9.23-31.377,10.272a151.983,151.983,0,0,1-49.319-4c-5.5-1.312-11.135-2.258-16.765-3.07-8.837-1.274-17.56-.332-26.143,1.685a43.209,43.209,0,0,0-6.4,1.951c-3.6,1.467-5.859,3.922-6.322,7.465-.02.157-.058.312-.09.468-.7,3.4-2.258,4.243-5.825,2.751a24.673,24.673,0,0,1-5.834-3.424,65.885,65.885,0,0,0-19.54-10.589c-2.1-.74-4.134-1.625-6.186-2.465a50.367,50.367,0,0,1-19.822-14.106c-2.844-3.376-5.61-6.8-8.4-10.213-2.841-3.476-5.63-6.985-8.507-10.438q-18.2-21.839-47.789-29.916c-9.692-2.661-19.364-5.376-29.046-8.064A67.888,67.888,0,0,0,42.3,320.4c-3.359-.053-6.72-.047-10.079-.01-10.074.11-20.149.662-30.221-.072v-8.535a44.727,44.727,0,0,0,4.585.415c8.079-.068,16.157-.211,24.235-.327,6.264-.09,12.545-.306,18.729.81,2.658.48,5.287,1.126,7.873,1.85,9.586,2.684,19.131,5.477,28.723,8.145,12.033,3.347,23.328,7.9,33.209,14.88a89.931,89.931,0,0,1,17.813,16.566c4.158,5.081,7.994,10.359,12.084,15.484,3.311,4.149,6.687,8.265,10.221,12.271a34.912,34.912,0,0,0,9.466,7.429,79.195,79.195,0,0,0,28.531,9.439,33.753,33.753,0,0,0,11.578-.9c5.186-1.149,10.326-2.455,15.521-3.571a74.119,74.119,0,0,1,29.156-.216c8.076,1.479,16.073,3.289,24.159,4.724a95.365,95.365,0,0,0,38.574-.73,48.308,48.308,0,0,0,10.85-3.718c12.342-6.274,25.706-10.221,39.264-13.848,9.015-2.412,18-4.936,26.879-7.7a190.92,190.92,0,0,0,44.018-20.529c7.319-4.538,14.5-9.248,21.876-13.711,4.389-2.655,8.931-5.154,13.614-7.392a46.473,46.473,0,0,1,8.877-2.881,14.543,14.543,0,0,1,10.925,1.7c2.116,1.213,4.067,2.646,6.067,4.008,2.715,1.85,5.338,3.807,8.119,5.577A21.927,21.927,0,0,0,524,342.346a70.724,70.724,0,0,0,13.2-4.375,203.18,203.18,0,0,0,30.276-16.337c9.148-5.976,18.4-11.814,28.032-17.208,24.182-13.541,50.41-22.614,78.509-27.733,13.055-2.378,25.961-5.259,38.791-8.459a171.981,171.981,0,0,0,59.569-27.249c3.916-2.82,7.832-5.656,11.948-8.244a82.09,82.09,0,0,1,10.384-5.606,18.331,18.331,0,0,1,18.212,1.316c2.254,1.449,4.358,3.075,6.531,4.62Z"
                transform="translate(-2 -172.374)"
                fill="#ffc400"
              />
              <path
                id="Path_14"
                data-name="Path 14"
                d="M1234,1927.692c2.61-.235,5.221-.461,7.83-.707,8.811-.829,17.264-2.995,25.664-5.307a378.659,378.659,0,0,1,44.311-9.838c17.558-2.633,35.2-4.479,53.083-4.4,15.892.072,31.8.028,47.677-.416,12.88-.361,25.751-1.239,38.6-2.174a121.71,121.71,0,0,1,28.977,1.73q31.156,5.185,62.306,10.4a103.868,103.868,0,0,0,19.783,1.466c10.434-.274,20.876-.66,31.278-1.387a216.4,216.4,0,0,1,39.413.9c9.822,1.1,19.665,1.955,29.576,2.15a202.99,202.99,0,0,0,52.46-6.019c.261-.064.531-.1.8-.152v9.009c-4.512,1.054-9.036,2.073-13.531,3.178-1.7.418-3.334,1.036-5,1.563H1547.9c-1.117-.3-2.219-.665-3.354-.905-21.684-4.6-43.609-8.127-65.613-11.334a144.486,144.486,0,0,0-37.118-.712c-9.083,1.016-18.213,1.738-27.334,2.467-15.353,1.227-30.728,2.19-45.98,4.322-14.237,1.99-28.553,3.547-42.831,5.317-1.685.209-3.347.56-5.021.845Z"
                transform="translate(-898.3 -1453.51)"
                fill="#ffc400"
              />
              <path
                id="Path_15"
                data-name="Path 15"
                d="M2,840.659c1.535-.005,3.071-.006,4.606-.016q15.393-.1,30.786-.2c11.261-.088,22.522-.291,33.782-.276a204.175,204.175,0,0,1,33.258,3.13c5.781.961,11.684,1.371,17.533,2.021,9.361,1.04,18.719,2.1,28.086,3.1q11.077,1.177,22.173,2.211c8.676.818,17.255,1.933,25.49,4.65,25.278,8.338,34.548,29.667,32.622,45.714a33.952,33.952,0,0,1-9.773,19.98c-3.214,3.3-7,6.175-10.555,9.218-1.811,1.55-3.832,2.932-5.493,4.591-3.2,3.2-2.555,6.077,1.673,8.17A22.037,22.037,0,0,0,214.231,945a44.678,44.678,0,0,0,22.332-4.106A55.21,55.21,0,0,0,256.739,925.3c6.833-8.3,10.856-17.635,13.406-27.51,1.65-6.39,3.086-12.826,4.929-19.173a46.961,46.961,0,0,1,3.828-8.838,30.145,30.145,0,0,1,4.1-5.563c3.931-4.451,9.142-5.877,15.459-4.885,10.015,1.574,19.83,3.832,29.609,6.237,11.177,2.749,22.374,5.436,33.849,7.1,17.12,2.487,34.2,2.807,50.951-1.754,6.3-1.715,12.368-4.1,18.446-6.377,6.25-2.34,12.471-4.767,18.532-7.449a64.714,64.714,0,0,0,10.543-5.815c9.174-6.337,18.021-13.033,27.225-19.335,8.915-6.1,17.946-12.1,27.227-17.773,14.119-8.629,29.748-14.807,45.712-20.357,13.915-4.837,27.563-10.152,40.819-16.263a234.265,234.265,0,0,1,43.579-15.332,114.057,114.057,0,0,1,47.433-1.637,121.294,121.294,0,0,1,16.077,4.4,303.666,303.666,0,0,1,58.9,26.511c2.71,1.59,5.422,3.181,8.189,4.694a238.971,238.971,0,0,1,34.864,23.461c2.925,2.345,6.018,4.533,9.033,6.793v8.535c-6.261-4.923-12.447-9.919-18.8-14.751-13.363-10.167-27.882-18.995-42.829-27.27A93.858,93.858,0,0,0,725.1,781.717c-5.454-.755-11.011-.947-16.523-1.377-4.157-.324-8.333-.512-12.472-.958-3.552-.384-6.382-1.965-7.8-4.918-3.922-8.191-11.712-10.978-21.079-11.511-8.994-.512-17.726.937-26.325,3.053a197.148,197.148,0,0,0-34.6,11.984,489.684,489.684,0,0,1-46.993,18.164c-17.344,5.827-33.863,13.009-48.89,22.641a325.8,325.8,0,0,0-26.657,19.169c-7.046,5.59-13.939,11.326-20.96,16.939-2.4,1.922-4.908,3.766-7.523,5.463a31.547,31.547,0,0,1-5.849,2.995q-11.216,4.289-22.544,8.355a114.7,114.7,0,0,1-27.751,6.576,122.356,122.356,0,0,1-26.882-.411c-14.084-1.708-27.588-5.43-41.127-9.025-9.978-2.649-19.926-5.394-30.207-7.06-1.248-.2-2.491-.454-3.75-.578A14.909,14.909,0,0,0,285,865.4a26.973,26.973,0,0,0-6.269,9.356,77.6,77.6,0,0,0-4.247,15.162c-1.651,8.013-3.525,15.971-7.1,23.545a62.966,62.966,0,0,1-24.15,27.492,56.4,56.4,0,0,1-33.5,8.718,38.326,38.326,0,0,1-14.63-3.365,25.66,25.66,0,0,1-6.258-4.093c-3.449-3.195-3.066-6.743.894-9.428a50.318,50.318,0,0,1,6.507-3.423c3.734-1.792,7.626-3.352,11.257-5.285a36.5,36.5,0,0,0,15.29-14.448c4.735-8.558,4.908-17.4,1.783-26.322-5.015-14.322-16.239-23.188-32.518-27.47a102.9,102.9,0,0,0-19.02-2.774c-13.118-.924-26.234-1.873-39.358-2.726-3.98-.259-7.986-.337-11.979-.321a230.373,230.373,0,0,1-27.983-1.195c-13.523-1.593-27.168-1.544-40.8-1.333-16.617.257-33.235.433-49.852.648-.36,0-.719.069-1.078.106Z"
                transform="translate(-2 -579.385)"
                fill="#ffc400"
              />
              <path
                id="Path_16"
                data-name="Path 16"
                d="M819.453,699.879c-5.642-3.451-11.174-7.049-16.947-10.325a576.852,576.852,0,0,0-54.566-26.693c-7.539-3.282-15.217-6.359-23.008-9.156a67.7,67.7,0,0,0-23.891-4.082,55,55,0,0,0-13.436,1.7c-14.572,3.886-29.394,7.012-43.97,10.845A310.656,310.656,0,0,0,587.8,683.258q-21.333,10.28-43.483,19.108c-12.793,5.119-25.049,11.13-37.216,17.281-11.7,5.913-23.516,11.633-36.09,16.05-3.193,1.122-6.43,2.2-9.739,3.01a122.813,122.813,0,0,0-23.605,8.47c-4.219,2.011-8.418,4.053-12.661,6.026a141.96,141.96,0,0,1-45.51,12.213,183.418,183.418,0,0,1-41.545-.473c-11.4-1.4-22.763-3.09-34.154-4.579-5.291-.692-10.606-1.242-15.919-1.8-4.812-.507-8.56,1.127-11.117,4.639a76.36,76.36,0,0,0-4.316,6.845c-2.81,4.868-5.464,9.8-8.317,14.652a52.636,52.636,0,0,1-4.595,6.705c-4.465,5.446-8.364,5.669-13.7.785-2.183-2-4.088-4.228-6.067-6.389-2.772-3.026-5.385-6.169-8.262-9.116-8.395-8.6-19.091-14.328-31.21-17.941-8.049-2.4-16.321-4.269-24.569-6.12A197.51,197.51,0,0,1,141.106,741.4c-12.05-5.16-24.138-10.259-36.309-15.2a125.4,125.4,0,0,0-29.663-8.462,118.848,118.848,0,0,0-13.8-1.209c-9.074-.21-18.159-.064-27.237-.16-10.075-.107-20.148-.324-30.222-.482-.624-.01-1.25.076-1.874.118V707.94c8.253.262,16.5.64,24.761.755,9.715.135,19.433.067,29.15.043a109.327,109.327,0,0,1,39.628,7.533c7.882,3.017,15.566,6.453,23.184,9.956,10.433,4.8,20.731,9.818,31.063,14.78,10.968,5.269,22.735,8.689,34.771,11.509a166.2,166.2,0,0,1,24.911,7.518,76.575,76.575,0,0,1,26,16.878c2.664,2.694,5.421,5.322,8.224,7.907a23.012,23.012,0,0,0,3.727,2.754c3.668,2.207,6.847,2.04,10.075-.679a21.744,21.744,0,0,0,4.252-4.591c2.587-3.98,4.965-8.068,7.277-12.176,1.234-2.193,2.129-4.53,3.229-6.782a35.431,35.431,0,0,1,1.891-3.412c2.487-3.925,6.365-5.468,11.4-4.858,13.212,1.6,26.412,3.274,39.63,4.831,13.243,1.56,26.54,2.566,39.919,1.967,20.21-.9,39.472-4.972,57.359-13.42q6.223-2.939,12.357-6.022a115.386,115.386,0,0,1,31.338-10.592,118.529,118.529,0,0,0,26.492-8.52c6.649-2.906,13.141-6.083,19.737-9.082,11.1-5.048,22.083-10.311,33.377-15.007,14.922-6.2,29.335-13.219,43.891-20.013a358.55,358.55,0,0,1,56.982-21.232c1.9-.521,3.818-1.024,5.755-1.439a201.6,201.6,0,0,0,24.478-7.2,131.569,131.569,0,0,1,14.942-4.375c8.758-1.944,17.484-1.037,26.082,1.092a126.486,126.486,0,0,1,20.752,7.105c19.83,8.764,39.673,17.51,59.322,26.575,7.433,3.429,14.347,7.707,21.5,11.6Z"
                transform="translate(-2 -491.713)"
                fill="#ffc400"
              />
              <path
                id="Path_17"
                data-name="Path 17"
                d="M2,1873.173a17.773,17.773,0,0,0,2.146.2c11.159-.281,22.329-.4,33.473-.925,15.152-.715,30.3-1.1,45.455-.411,19.126.873,38.237,1.995,57.364,2.829,10.423.455,20.866.624,31.3.77,12.986.182,25.969.426,38.857,1.9a509.592,509.592,0,0,1,61.663,10.468,91.76,91.76,0,0,1,18.955,6.4c8.837,4.316,18.626,6.116,28.594,7.189,3.594.386,7.2.653,10.807.974h-54.5c-2.731-1.238-5.409-2.576-8.205-3.689a90.714,90.714,0,0,0-10.05-3.587,314.908,314.908,0,0,0-80.177-10.773c-11.986-.055-23.977-.212-35.954-.592-26.685-.846-53.359-1.516-80.073-.872-19.877.479-39.772.385-59.659.546Z"
                transform="translate(-2 -1428.391)"
                fill="#ffc400"
              />
              <path
                id="Path_18"
                data-name="Path 18"
                d="M250.506,1966.887H2v-10.906c8.444,0,16.887-.017,25.331.005q77.627.2,155.254.424a251.556,251.556,0,0,1,58.042,7.265C244,1964.484,247.217,1965.8,250.506,1966.887Z"
                transform="translate(-2 -1492.706)"
                fill="#ffc400"
              />
              <path
                id="Path_19"
                data-name="Path 19"
                d="M1733.015,2c-.38,1.7-.824,3.392-1.129,5.1-1,5.6.349,11.015,2,16.354,1.837,5.939,4.077,11.784,5.9,17.726a35.433,35.433,0,0,1,1.455,8.155c.236,3.8-1.265,5.507-5.334,6.759a64.22,64.22,0,0,1-19.688,3.242c-9.978-.118-19.955-.367-29.929-.639-4.8-.131-9.615-.306-14.392-.729a33.581,33.581,0,0,1-7.625-1.607c-4.075-1.366-6.123-4.193-5.888-7.979a36.161,36.161,0,0,1,1.306-6.746c.759-2.921,1.821-5.784,2.548-8.71,1.474-5.932.162-11.448-3.666-16.5-1.1-1.449-2.413-2.78-3.428-4.268a35.214,35.214,0,0,1-3.471-5.84C1650.9,4.5,1649.231,3.428,1648,2h32.7c2.487.313,4.965.7,7.462.921,4.328.381,8.693.512,12.995,1.037a24.352,24.352,0,0,1,6.12,1.836,2.869,2.869,0,0,1,1.522,2c.122,1.052-.981,1.655-2.093,1.875a14.408,14.408,0,0,1-3.488.366c-3.167-.165-6.323-.488-9.487-.721-4.071-.3-8.153-.627-12.2.171-5.5,1.086-7.479,3.244-7.342,8.18.081,2.918.451,5.829.613,8.746.189,3.392.229,6.791.447,10.181.3,4.706,2.992,8.009,7.986,9.866.75.279,1.511.546,2.289.755a54.213,54.213,0,0,0,22.063,1.235c10.466-1.511,19.079-12.193,17.294-20.126-.366-1.625-.586-3.274-.912-4.907-.388-1.944-.843-3.879-1.227-5.824-1.074-5.445-.607-10.7,2.643-15.593Z"
                transform="translate(-1199.491 -2)"
                fill="#ffc400"
              />
              <path
                id="Path_20"
                data-name="Path 20"
                d="M1511.984,2a39.766,39.766,0,0,1,7.078,5.826c1.33,1.409,3.421,2.3,5.24,3.325,2.737,1.548,5.654,2.873,8.285,4.543,8.6,5.46,10.677,11.785,6.589,20.307-1.427,2.974-3.355,5.768-5.093,8.627-1.442,2.372-3.033,4.678-4.39,7.085a11.712,11.712,0,0,0-.369,11.246,41.466,41.466,0,0,0,6.5,10.1c3.12,3.531,5.955,4.252,10.734,2.725,2.3-.734,4.519-1.646,6.75-2.526a85.964,85.964,0,0,1,38.238-5.518,167.023,167.023,0,0,1,20.408,2.811c6.657,1.314,13.285,1.658,19.891-.206.346-.1.7-.178,1.039-.283,5.371-1.657,7.669-4.257,7.542-9.232a25.064,25.064,0,0,0-1.33-7.691c-1.9-5.345-4.246-10.569-6.326-15.867-2.254-5.744-4.588-11.472-6.558-17.292A23.622,23.622,0,0,1,1625.9,4.55a21.062,21.062,0,0,0,.532-2.55h3.815c-.522,1.917-1.069,3.83-1.564,5.753-1.081,4.2-.344,8.333.8,12.419,1.885,6.7,5.138,12.969,8.223,19.293,2.622,5.374,5.157,10.786,7.491,16.259a27.431,27.431,0,0,1,2.126,11.4c-.1,5.051-2.57,8.746-7.713,11.139a31.154,31.154,0,0,1-21.843,2.108c-2.512-.673-4.978-1.485-7.432-2.308a74.074,74.074,0,0,0-25.262-4.08,53.078,53.078,0,0,0-20.917,4.626,63.117,63.117,0,0,0-15.683,10.137c-2.311,2.012-4.546,4.09-6.867,6.093a24.3,24.3,0,0,1-3.3,2.469c-2.337,1.407-3.873,1.027-4.9-1.243a27.969,27.969,0,0,1-1.309-4.1c-1.249-4.526-2.158-9.145-3.785-13.565a64.648,64.648,0,0,0-5.792-11.982c-4.018-6.413-3.589-12.317,1.185-18.212,2.351-2.9,4.479-5.946,6.6-8.983a21.8,21.8,0,0,0,3.648-7.866c.831-3.861-.315-7.194-3.411-10.024a22.288,22.288,0,0,0-8.132-4.656c-4.152-1.367-8.406-2.5-12.612-3.744-2.146-.635-4.31-1.233-6.415-1.96A4.537,4.537,0,0,1,1500.141,8a6.166,6.166,0,0,0-2.81-3.372C1496.168,3.808,1495.107,2.88,1494,2Z"
                transform="translate(-1087.453 -2)"
                fill="#ffc400"
              />
              <path
                id="Path_21"
                data-name="Path 21"
                d="M2253.63,2a25.214,25.214,0,0,0,2.542,1.617c8.312,4.045,16.7,7.975,24.942,12.122a72.983,72.983,0,0,1,8.854,5.492,21.894,21.894,0,0,1,4.218,3.983,4.851,4.851,0,0,1-.088,6.823c-1.243,1.453-2.709,2.76-4.022,4.17a46.131,46.131,0,0,0-4.145,4.68c-4.32,6.165-2.828,12.833,3.767,17.247a27.511,27.511,0,0,0,14.947,4.5c19.054.391,34.64-5.7,45.324-19.685a61.942,61.942,0,0,1,20.076-17.028q10.847-5.9,21.373-12.239a37.392,37.392,0,0,1,21.3-5.245,173.983,173.983,0,0,1,37.49,5.343c.606.156,1.195.364,1.792.548V18.6a131.909,131.909,0,0,0-25.094-5.2c-3.861-.445-7.761-.718-11.653-.84a27.872,27.872,0,0,0-14.06,3.121c-9.867,5.224-19.346,10.947-27.666,17.953a66.3,66.3,0,0,0-8.407,8.682c-11.362,13.822-27.04,21.708-45.772,25.337-8.682,1.681-17.458,1.96-26.136-.234a32.021,32.021,0,0,1-13.738-6.946c-6.926-6.18-9.192-13.448-6.489-21.783a60.9,60.9,0,0,1,2.783-6.929c2.491-5.338,1.236-9.963-3.549-13.78a88.3,88.3,0,0,0-9.713-6.847c-4.407-2.634-9.095-4.908-13.644-7.363-.992-.535-1.909-1.176-2.861-1.768Z"
                transform="translate(-1634.545 -2)"
                fill="#ffc400"
              />
              <path
                id="Path_22"
                data-name="Path 22"
                d="M36.333,2c-.64.735-.2,1.191.584,1.436,1.617.509,3.239,1.026,4.9,1.406,9.485,2.173,18.959,4.436,27.59,8.593,6.58,3.169,12.968,6.651,19.329,10.149,7.9,4.343,15.607,8.947,23.537,13.244a102.661,102.661,0,0,0,17.859,7.505,41.977,41.977,0,0,0,27.615-.339c6.289-2.257,12.547-4.578,18.8-6.91,15.554-5.8,31.771-9.84,48.048-13.71,19.865-4.722,39.989-8.5,60.09-12.359,1.945-.373,3.876-.829,5.769-1.366a17.7,17.7,0,0,0,2.7-1.3c-2.595-3.085-6.546-4.117-9.4-6.35h20.709c.7.481,1.372,1,2.109,1.436,2.1,1.242,4.268,2.407,6.333,3.695a15.932,15.932,0,0,1,2.2,2.114,42.486,42.486,0,0,1-4.654,1.668c-4.652,1.052-9.331,2.019-14.017,2.954-23.7,4.727-47.421,9.369-70.822,15.15-16.164,3.994-32.174,8.352-47.345,14.766-6.121,2.588-12.264,5.146-18.482,7.549a41.284,41.284,0,0,1-31.123-.368,103.93,103.93,0,0,1-13.315-6.417c-6.349-3.665-12.4-7.72-18.6-11.585-7.746-4.83-15.25-10-23.322-14.376C53.6,7.847,32.032,4.189,8.951,7.62Q5.477,8.136,2,8.639v-1.9A14.988,14.988,0,0,0,4.124,6.6Q9.369,5.526,14.591,4.359c1.388-.311,2.756-.7,4.11-1.114.624-.19,1.11-.554.738-1.245Z"
                transform="translate(-2 -2)"
                fill="#ffc400"
              />
              <path
                id="Path_23"
                data-name="Path 23"
                d="M2,121.363a15.05,15.05,0,0,0,2.124-.279,59.8,59.8,0,0,1,26.085-1.222c8.376,1.386,16.82,2.465,25.2,3.843a75.963,75.963,0,0,1,22.991,7.73c3.656,1.912,7.318,3.818,11.045,5.622a32.882,32.882,0,0,0,5.462,2.107c3.9,1.087,5.618-.243,4.965-3.717A16.769,16.769,0,0,0,99,132.223c-6.345-15.617-14.738-30.253-27.749-42.556A56.084,56.084,0,0,0,41.363,74.631,79.028,79.028,0,0,0,19.141,74.2C13.4,74.872,7.712,75.914,2,76.79V73.47c3.319-.4,6.633-.823,9.957-1.182a111.271,111.271,0,0,1,26.863-.056A61.883,61.883,0,0,1,71.346,86.967a110.671,110.671,0,0,1,20.848,24.473,344.747,344.747,0,0,1,18.286,32.54,19.982,19.982,0,0,1,1.673,4.489c.416,1.809-.473,2.589-2.576,2.232a22.2,22.2,0,0,1-5.14-1.488c-3.643-1.6-7.2-3.343-10.754-5.093q-3.078-1.516-6.024-3.232c-10.342-6.011-21.727-9.686-33.867-11.861q-11.715-2.1-23.271-4.855a46.29,46.29,0,0,0-25.652.753c-.927.3-1.912.472-2.87.7Z"
                transform="translate(-2 -54.977)"
                fill="#ffc400"
              />
              <path
                id="Path_24"
                data-name="Path 24"
                d="M390,2c.785.374,1.59.719,2.347,1.131.737.4,1.423.871,2.085,1.281-.563,1.57-1.964,1.93-3.207,2.274-3.97,1.1-7.98,2.088-11.982,3.1q-16.97,4.279-33.944,8.546A103.86,103.86,0,0,1,328.565,21.4a55.77,55.77,0,0,1-25.227-3.61c-9.664-3.781-19.11-7.986-28.606-12.084C273.079,5,271.189,4.176,271.74,2h11.989c-.695,1.02-.281,1.841.7,2.462a16.364,16.364,0,0,0,2.986,1.627c5.99,2.23,11.932,4.586,18.045,6.529a53.255,53.255,0,0,0,20.907,2.076c10.91-.963,21.222-3.938,31.353-7.436a9.126,9.126,0,0,0,1.874-.944c1-.636,1.1-1.41.213-2.195C358.994,3.394,358.138,2.7,357.3,2Z"
                transform="translate(-198.169 -2)"
                fill="#ffc400"
              />
              <path
                id="Path_25"
                data-name="Path 25"
                d="M2446.623,2c-5.113,2.69-10.212,5.4-15.341,8.066-9.2,4.782-19.229,7.256-29.844,8.164-12.339,1.054-24.191-1.046-35.9-4.085a337.407,337.407,0,0,1-33.572-10.991A12.776,12.776,0,0,1,2330,2h14.169a15.377,15.377,0,0,0,2.484,1.2,166.024,166.024,0,0,0,31.769,6.193c10.751.893,21.389.336,31.708-2.7A38.607,38.607,0,0,0,2421.01,2Z"
                transform="translate(-1695.657 -2)"
                fill="#ffc400"
              />
              <path
                id="Path_26"
                data-name="Path 26"
                d="M221.852,2a2.4,2.4,0,0,0,1.51,2.782c1,.542,2.02,1.057,3.062,1.533,9.311,4.249,18.6,8.528,27.956,12.709,3.865,1.728,7.814,3.329,11.8,4.831a61.3,61.3,0,0,0,37.732,2.028c8.08-2.084,16.074-4.445,24.22-6.3,17.968-4.1,36.009-7.951,54.019-11.905,1.581-.347,3.183-.643,4.732-1.08a25.03,25.03,0,0,0,2.854-1.177C389.181,3.406,386.9,3.256,385.888,2H400.6c1.082.7,2.193,1.373,3.237,2.115.8.566,1.509,1.222,2.317,1.885a6.422,6.422,0,0,1-3.794,1.755c-7.942,1.633-15.908,3.185-23.83,4.886-22.545,4.843-44.989,9.99-66.959,16.6-7.672,2.31-15.551,3.792-23.779,3.085a66.237,66.237,0,0,1-19.333-4.6c-6.565-2.669-13.02-5.574-19.345-8.652-9.187-4.472-18.35-8.963-27.968-12.713a42.18,42.18,0,0,1-3.831-1.791A2.254,2.254,0,0,1,215.857,2Z"
                transform="translate(-157.546 -2)"
                fill="#ffc400"
              />
              <path
                id="Path_27"
                data-name="Path 27"
                d="M1842,1980.033c3.346-.613,6.667-1.388,10.044-1.808,12.914-1.6,25.832-3.2,38.779-4.585a100.434,100.434,0,0,1,20.893.262c13.056,1.333,26.032,3.083,38.85,5.653a14.294,14.294,0,0,1,1.518.479Z"
                transform="translate(-1340.629 -1505.851)"
                fill="#ffc400"
              />
              <path
                id="Path_28"
                data-name="Path 28"
                d="M396.9,2c.625.565,1.277,1.109,1.87,1.7,1.143,1.136,1.075,1.86-.395,2.709a15.732,15.732,0,0,1-2.918,1.257c-16.287,5.381-32.186,4.33-47.736-2.236a15.825,15.825,0,0,1-1.857-.984c-1.053-.62-1.377-1.428-.736-2.445h8.719c-.336,1.256.215,2.113,1.553,2.619.5.188.977.412,1.483.575a52.653,52.653,0,0,0,22.9,2.193,27.538,27.538,0,0,0,5.475-1.245c2.233-.766,2.334-1.626.686-3.1-.367-.328-.689-.694-1.032-1.043Z"
                transform="translate(-251.389 -2)"
                fill="#ffc400"
              />
              <path
                id="Path_29"
                data-name="Path 29"
                d="M2955.439,5.319c-5.331-.915-10.664-1.822-15.989-2.759A7.789,7.789,0,0,1,2938,2h17.439Z"
                transform="translate(-2137.986 -2)"
                fill="#ffc400"
              />
              <path
                id="Path_30"
                data-name="Path 30"
                d="M724.511,492.021a21.736,21.736,0,0,1-2.624.975,63.8,63.8,0,0,1-14.3,1.392,139.987,139.987,0,0,1-53.4-9.671c-8.826-3.523-17.623-7.1-26.454-10.613a108.062,108.062,0,0,0-28.262-7.527c-3.238-.354-6.506-.565-9.768-.672A39.936,39.936,0,0,1,573.14,461.7a133.013,133.013,0,0,1-21.9-14.019,86.335,86.335,0,0,1-8.053-7.049,19.821,19.821,0,0,1-3.472-4.781,6.908,6.908,0,0,1,1.568-9.012,41.729,41.729,0,0,1,6.583-4.922c6.151-3.718,13.127-5.708,20.465-6.709a75.606,75.606,0,0,1,18.433-.68c5.429.587,9.893,2.608,13.2,6.358a78.556,78.556,0,0,1,5.616,7.266c3.8,5.483,7.464,11.043,12.226,15.953,20.549,21.188,45.961,35.584,77.289,41.595,8.5,1.631,17.078,2.98,25.61,4.5,1.284.229,2.515.685,3.77,1.036Q724.492,491.627,724.511,492.021ZM640.552,471.5l.388-.638a16.326,16.326,0,0,0-1.632-2.062c-1.982-1.844-3.979-3.683-6.082-5.422-11.569-9.568-21.808-20.061-29.922-32.075a61.971,61.971,0,0,0-5.284-6.6,20.134,20.134,0,0,0-13.025-6.694,53.337,53.337,0,0,0-29.68,4.84,28.18,28.18,0,0,0-6.777,4.674c-3.484,3.2-3.8,6.61-1.182,10.411a26.174,26.174,0,0,0,4.33,4.837A87.333,87.333,0,0,0,574.4,456.882a42.977,42.977,0,0,0,15.443,3.388c3.977.172,7.964.538,11.893,1.1,9.355,1.338,18.24,4.086,27.019,7.127,2.945,1.02,5.96,1.892,8.977,2.741A15.362,15.362,0,0,0,640.552,471.5Z"
                transform="translate(-392.455 -316.485)"
                fill="#ffc400"
              />
              <path
                id="Path_31"
                data-name="Path 31"
                d="M2103.965,57.9c-.208,1.565-.518,4.154-.917,6.732a8.419,8.419,0,0,1-.763,2.268c-1.317,2.783-3.575,3.684-6.779,2.549a20.545,20.545,0,0,1-4.479-2.211,52,52,0,0,1-16.7-17.551,15.892,15.892,0,0,1-2.415-8.183c.076-3.962,2.464-6.917,6.757-8.32a17.286,17.286,0,0,1,11.417.374,19.009,19.009,0,0,1,11.379,10.286C2103.411,48.03,2103.749,52.435,2103.965,57.9Zm-12.625-8.75c-.319-2.986-1.444-5.574-4.7-7-2.987-1.3-5.666.193-5.4,3.068.3,3.212,2.292,5.6,5.519,7.106,2.05.955,3.71.187,4.322-1.794A11.826,11.826,0,0,0,2091.34,49.154Z"
                transform="translate(-1507.895 -25.182)"
                fill="#ffc400"
              />
              <path
                id="Path_32"
                data-name="Path 32"
                d="M26.041,130.186c-3.9,0-7.8.026-11.694-.016a17.631,17.631,0,0,1-3.5-.351c-2.4-.519-2.92-1.654-1.489-3.468a14.183,14.183,0,0,1,2.947-2.756A46.371,46.371,0,0,1,32.8,115.907c8.591-1.226,16.817-.388,24.441,3.489a31.315,31.315,0,0,1,12.255,10.527,11.786,11.786,0,0,1,1.679,3.947c.342,1.59-.456,2.278-2.281,2.081a29.764,29.764,0,0,1-4.46-.993c-4.672-1.251-9.272-2.75-14.011-3.76-6.647-1.417-13.483-1.409-20.295-1.331-1.361.016-2.722,0-4.083,0Q26.041,130.027,26.041,130.186Z"
                transform="translate(-6.779 -88.502)"
                fill="#ffc400"
              />
              <path
                id="Path_33"
                data-name="Path 33"
                d="M2075.278,1144.6c-.157,11.791-4.876,21.793-15.893,29.009a36.934,36.934,0,0,1-29.819,5.337c-9.356-2.25-15.8-7.3-17.8-15.864a19.691,19.691,0,0,1,1.644-12.774,38.574,38.574,0,0,1,9.318-12.42,81.2,81.2,0,0,1,24.026-15.306,44.427,44.427,0,0,1,8.183-2.516c6.427-1.3,11.163.452,14.7,5.295,3.692,5.063,5.153,10.735,5.64,16.635C2075.34,1142.864,2075.278,1143.736,2075.278,1144.6Zm-37.435,27.953c11.546.025,21.1-6.191,23.778-14.837a17.069,17.069,0,0,0,.7-6.776c-.814-7.392-6.97-11.413-15.4-10.079-8.51,1.346-15.355,5.187-20.3,11.367a16.64,16.64,0,0,0-2.855,5.581c-1.569,5.274,1.048,10.188,6.521,12.848A18.821,18.821,0,0,0,2037.843,1172.557Z"
                transform="translate(-1463.808 -854.668)"
                fill="#ffc400"
              />
              <path
                id="Path_34"
                data-name="Path 34"
                d="M985.852,211c3.652.224,7.089.427,10.523.655a9.517,9.517,0,0,1,1.6.281c3.527.855,4.535,2.355,3.606,5.478-.363,1.221-.9,2.4-1.308,3.614-1.331,3.994-.312,6.372,4,8.2a68.917,68.917,0,0,0,8.91,2.869c4.418,1.189,8.925,2.126,13.341,3.318a48.276,48.276,0,0,1,6.8,2.394c7.821,3.434,11.788,9.127,12.455,16.633.633,7.114-1.295,13.8-4.682,20.21-5.484,10.374-13.992,18.571-24.415,25.337-14.284,9.274-30.353,14.7-48.008,16.606a139.657,139.657,0,0,1-63.925-7.788c-13.423-4.93-25-12.176-33.917-22.36a43.851,43.851,0,0,1-6.817-10.217c-3.576-7.614-3.668-15.221.177-22.779,1.248-2.453,2.623-4.862,4.052-7.24,2.281-3.8,3.149-7.679,1.611-11.883-1.342-3.667.114-6.62,3.79-8.54a64.063,64.063,0,0,1,9.474-4.1c8.948-2.959,18.311-4.525,27.759-5.7,12.316-1.526,24.707-2.38,37.118-3.029C960.675,212.305,973.358,211.652,985.852,211Zm-30.044,104.58c3.438-.305,9.516-.618,15.508-1.419a102.7,102.7,0,0,0,45.866-17.435c9.715-6.781,17.557-14.857,22.151-25.075a30.721,30.721,0,0,0,3.059-15.274c-.621-7.42-4.681-12.825-12.564-15.892a33,33,0,0,0-5.615-1.776c-6.1-1.184-12.254-2.192-18.376-3.31-5.766-1.053-11.556-2.032-17.266-3.283a17.751,17.751,0,0,1-10.842-6.713,10.965,10.965,0,0,0-7.244-4.289,81.766,81.766,0,0,0-10.5-1.232,227.866,227.866,0,0,0-42.548,2.794,78.75,78.75,0,0,0-15.446,3.738c-3.649,1.36-7.043,3.112-9.182,6.091-3.659,5.1-8.467,9.242-13.537,13.228a49.82,49.82,0,0,0-9.4,9.181c-4.157,5.593-5.452,11.606-3.568,18.116,1.7,5.881,5.171,10.929,9.593,15.511a75.416,75.416,0,0,0,24.65,16.519C917.1,312.238,934.784,315.244,955.808,315.584Z"
                transform="translate(-627.168 -161.451)"
                fill="#ffc400"
              />
              <path
                id="Path_35"
                data-name="Path 35"
                d="M636.1,478.359c-12.993,1.22-22.748-2.957-31.509-9.332a23.1,23.1,0,0,1-5.038-5.216c-1.988-2.769-1.585-5.648.9-8.1a17.553,17.553,0,0,1,4.325-3.2,33.655,33.655,0,0,1,20.143-3.448,20.368,20.368,0,0,1,12.545,6.555,62.041,62.041,0,0,1,10.549,16.226,6.588,6.588,0,0,1,.274.669c1.183,3.53.147,4.945-4.089,5.584a13.911,13.911,0,0,1-1.882.244C639.869,478.376,637.419,478.359,636.1,478.359Zm-13-10.429c2.337-.166,4.616-.533,5.76-2.573,1.121-2,.337-3.856-1.054-5.544-2.886-3.5-8.514-4.673-12.908-2.709-3.524,1.575-4.175,4.463-1.481,7A15.159,15.159,0,0,0,623.1,467.93Z"
                transform="translate(-435.81 -342.824)"
                fill="#ffc400"
              />
              <path
                id="Path_36"
                data-name="Path 36"
                d="M996.21,333.3c12.144.556,24.294,1.015,36.428,1.705a90.33,90.33,0,0,1,19.3,2.706,40.619,40.619,0,0,1,6.507,2.364c5.9,2.814,8.889,7.284,9.228,13.091.347,5.951-1.761,11.377-4.962,16.515-4.532,7.274-10.9,13.183-18.375,18.209a99.493,99.493,0,0,1-42.866,15.844,126.8,126.8,0,0,1-63.043-7.254c-9.418-3.593-17.761-8.59-24.439-15.5-3.665-3.79-6.483-7.982-7.692-12.9-1.406-5.722.1-10.8,4.38-15.27a35.147,35.147,0,0,1,10.14-7.078c8.218-4.021,17.1-6.5,26.192-8.475,14.907-3.246,30.081-4.107,45.382-3.836,1.271.023,2.542,0,3.813,0C996.2,333.389,996.207,333.347,996.21,333.3Zm8.233,2.9-20.433.5a216.269,216.269,0,0,0-36.414,3.9A104.791,104.791,0,0,0,924,347.708a36.158,36.158,0,0,0-9.623,6.134c-5.356,4.947-6.693,10.7-4.385,17.109,1.664,4.625,4.831,8.465,8.653,11.912a65.444,65.444,0,0,0,20.294,12.159,123.7,123.7,0,0,0,61.167,7.286,97.969,97.969,0,0,0,39.168-13.364c7.977-4.843,14.852-10.635,19.9-17.944a29.348,29.348,0,0,0,5.534-13.739c.643-6.441-1.785-11.7-8.375-15.059a38.136,38.136,0,0,0-6.99-2.576,71.306,71.306,0,0,0-15.8-2.27C1023.213,336.851,1012.873,336.527,1004.443,336.2Z"
                transform="translate(-659.516 -254.756)"
                fill="#ffc400"
              />
              <path
                id="Path_37"
                data-name="Path 37"
                d="M1033.008,361.5c7.042.318,15.472.623,23.889,1.109a55.024,55.024,0,0,1,13.3,2.345c10.384,3.253,14.4,10.04,11.42,19.3-2.065,6.414-6.314,11.688-11.583,16.366-10.631,9.441-23.585,15.384-38.151,18.779a107.387,107.387,0,0,1-26.662,2.8c-15.606-.325-30.607-3.037-44.574-9.346-6.5-2.937-12.382-6.593-17.062-11.573a23.711,23.711,0,0,1-5.021-7.542c-2.206-5.661-1.093-10.734,3.559-15.17A34.351,34.351,0,0,1,953,371.969a108.412,108.412,0,0,1,22.56-6.069,247.21,247.21,0,0,1,32.385-3.43C1015.827,362.138,1023.715,361.856,1033.008,361.5Zm-2.952,4.654c-3.845.142-10.011.347-16.176.6a263.993,263.993,0,0,0-33.753,3.46,101.16,101.16,0,0,0-21.284,5.668,33.223,33.223,0,0,0-8.834,5.057c-5.268,4.4-6.319,9.909-2.974,15.552a25.447,25.447,0,0,0,5.993,6.7,57.948,57.948,0,0,0,18.307,9.615,107.835,107.835,0,0,0,41.37,5.36,96.2,96.2,0,0,0,36.308-9.095c7.783-3.757,14.667-8.468,20-14.747a25.1,25.1,0,0,0,5.649-10.412c1.336-5.658-.975-10.5-6.832-13.21a41.255,41.255,0,0,0-9.165-2.865C1050.024,366.115,1041.187,366.238,1030.056,366.152Z"
                transform="translate(-682.567 -276.264)"
                fill="#ffc400"
              />
              <path
                id="Path_38"
                data-name="Path 38"
                d="M1061.091,390.917c7.692.4,15.4.663,23.071,1.255a66.093,66.093,0,0,1,9.532,1.848,17.751,17.751,0,0,1,3.726,1.425c5.744,2.788,7.887,7.282,6.2,12.837a22.136,22.136,0,0,1-4.307,7.606,51.419,51.419,0,0,1-16.415,12.622,87.861,87.861,0,0,1-32.326,9.236,102.549,102.549,0,0,1-40.492-3.876,60.205,60.205,0,0,1-15.595-7.146,26.881,26.881,0,0,1-7.406-6.877c-3.71-5.335-2.916-10.5,2.281-14.784a34.167,34.167,0,0,1,10.168-5.4,118.538,118.538,0,0,1,24.15-5.542C1036.056,392.36,1048.547,391.632,1061.091,390.917Zm-21.155,45.144c3.615-.244,7.244-.383,10.841-.753a82.321,82.321,0,0,0,29.709-8.642,47.933,47.933,0,0,0,13.443-9.889,20.167,20.167,0,0,0,4.808-7.891c1.332-4.551-.293-8.414-4.911-10.8a33.448,33.448,0,0,0-6.985-2.554,69.184,69.184,0,0,0-16.415-1.853c-6.346-.077-12.7.07-19.044.282a221.849,221.849,0,0,0-32.371,3.42,84.726,84.726,0,0,0-18.084,5.054,24.673,24.673,0,0,0-8.305,5.255c-3.2,3.309-3.646,6.939-1.516,10.814a15.827,15.827,0,0,0,5.451,5.83,70.042,70.042,0,0,0,9.6,5.328C1016.779,434.2,1028.161,435.9,1039.937,436.061Z"
                transform="translate(-716.99 -298.708)"
                fill="#ffc400"
              />
              <path
                id="Path_39"
                data-name="Path 39"
                d="M1122.636,437.421a60.809,60.809,0,0,1,14.359,1.144,26.574,26.574,0,0,1,6.263,2.207c3.48,1.819,4.217,4.615,2.4,7.771a16.049,16.049,0,0,1-5.166,5.124,48.345,48.345,0,0,1-16.921,6.823,67.9,67.9,0,0,1-31.2-.2,29.948,29.948,0,0,1-9.542-3.936c-5.658-3.774-5.554-8.24.337-11.707,4.83-2.843,10.365-4.14,15.978-5.165A126.15,126.15,0,0,1,1122.636,437.421ZM1117.2,442.4a66.084,66.084,0,0,0-15.568,2.286,26.048,26.048,0,0,0-6.273,2.715c-2.8,1.746-2.757,4.183.129,5.789a22.046,22.046,0,0,0,6.464,2.31,41.382,41.382,0,0,0,20.331-1.254,30.289,30.289,0,0,0,5.788-2.556c1.91-1.08,3.813-2.458,3.323-4.75-.465-2.175-2.7-2.916-4.837-3.3C1123.471,443.072,1120.319,442.794,1117.2,442.4Z"
                transform="translate(-785.29 -334.179)"
                fill="#ffc400"
              />
            </g>
          </g>
        </g>
      </g>
    </svg>  
