<svg xmlns="http://www.w3.org/2000/svg" xmlns:xlink="http://www.w3.org/1999/xlink" width="117.15" height="128.236" viewBox="0 0 117.15 128.236">
  <defs>
    <clipPath id="clip-path">
      <rect id="Rectangle_46902" data-name="Rectangle 46902" width="117.15" height="128.236" fill="#fff"/>
    </clipPath>
  </defs>
  <g id="Group_190421" data-name="Group 190421" opacity="0.15">
    <g id="Group_189859" data-name="Group 189859" clip-path="url(#clip-path)">
      <path id="Path_283952" data-name="Path 283952" d="M73.893,12.773l8.4,40.36h.186a9.7,9.7,0,0,1,9.52,11.59l-1.713,8.652h27.54A11.333,11.333,0,0,1,129.113,84,27.658,27.658,0,0,0,133.9,73.051l1.756-8.869a6.924,6.924,0,0,0-6.793-8.27H101.728a15.087,15.087,0,0,1-14.494-10.9L75.1,3.021a4.18,4.18,0,0,0-7.869-.463,16.838,16.838,0,0,1,6.665,10.214" transform="translate(-20.502)" fill="#fff"/>
      <path id="Path_283953" data-name="Path 283953" d="M121.521,109.568H93.313a30.321,30.321,0,0,1-4.372,9.064,30.734,30.734,0,0,1-9.579,8.786h42.159a8.59,8.59,0,0,0,8.548-8.548v-.755a8.557,8.557,0,0,0-8.548-8.548" transform="translate(-24.202 -33.413)" fill="#fff"/>
      <path id="Path_283954" data-name="Path 283954" d="M40.1,53.743H64.217L55.938,13.948A14.013,14.013,0,0,0,51.952,6.74a13.741,13.741,0,0,0-7.272-3.7A76.3,76.3,0,0,0,32.145,2c-1.869,0-3.762.072-5.628.214a13.813,13.813,0,0,0-9.239,4.573l11,38.066A12.368,12.368,0,0,0,40.1,53.743" transform="translate(-5.269 -0.61)" fill="#fff"/>
      <path id="Path_283955" data-name="Path 283955" d="M39.807,95.395h0a27.761,27.761,0,0,0,4.021-.3q1.129-.165,2.23-.418c.892-.206,1.768-.458,2.627-.749A27.69,27.69,0,0,0,66.2,76.155q.221-.687.406-1.39t.332-1.39c.023-.108.05-.215.072-.324l1.756-8.868a6.918,6.918,0,0,0-6.4-8.247c-.133-.007-.263-.022-.4-.022H34.833a15.087,15.087,0,0,1-14.494-10.9L9.972,9.147l-.537-1.86-.5-1.733L8.2,3.021A4.182,4.182,0,0,0,.07,4.939L12.533,72.681A27.731,27.731,0,0,0,39.807,95.395" transform="translate(0)" fill="#fff"/>
      <path id="Path_283956" data-name="Path 283956" d="M141.973,167.267a55.748,55.748,0,0,0-3.361-5.241,56.915,56.915,0,0,0-8.436-9.375,47.4,47.4,0,0,0-10.772-7.231,38.706,38.706,0,0,0-12.855-3.682,33.867,33.867,0,0,0-13.589,1.205,30.26,30.26,0,0,0-4.716,1.934,51.338,51.338,0,0,1,7.343,5.291l.159.137c.1.087.206.174.3.261.316.278.628.565.939.854.318-.064.637-.12.962-.157.823-.159,1.676-.214,2.521-.3a35.252,35.252,0,0,1,5.166.067c6.91.568,13.658,3.475,19.863,7.632a90.718,90.718,0,0,1,14.822,12.731h3.737a46.057,46.057,0,0,0-2.087-4.126" transform="translate(-26.911 -43.157)" fill="#fff"/>
      <path id="Path_283957" data-name="Path 283957" d="M69.14,161.4a35.138,35.138,0,0,0-3,5.53,37.7,37.7,0,0,0-2.011,6.063,31.171,31.171,0,0,0-.76,4.466h3.247a48.927,48.927,0,0,1,9.5-13.011,43.57,43.57,0,0,0-6.2-2.8c-.261-.092-.52-.165-.78-.25" transform="translate(-19.324 -49.219)" fill="#fff"/>
      <path id="Path_283958" data-name="Path 283958" d="M79.28,162.025a56.939,56.939,0,0,0-8.436-9.374c-.145-.129-.3-.253-.443-.38a47.959,47.959,0,0,0-8.284-5.788c-.671-.369-1.351-.728-2.046-1.063a38.707,38.707,0,0,0-12.855-3.682,34.885,34.885,0,0,0-3.884-.217,33.386,33.386,0,0,0-9.7,1.422,31.472,31.472,0,0,0-6.367,2.826,30.093,30.093,0,0,0-5.451,4.2,33.377,33.377,0,0,0-7.416,10.892,37.718,37.718,0,0,0-2.011,6.062,31.164,31.164,0,0,0-.76,4.466h3.247c3.214-6.116,7.261-11.64,12.231-15.3a26.8,26.8,0,0,1,4.354-2.639,27.99,27.99,0,0,1,4.7-1.71c.82-.172,1.625-.387,2.467-.482.823-.159,1.676-.214,2.521-.3.8-.035,1.6-.062,2.4-.062a27.251,27.251,0,0,1,2.765.129,34.812,34.812,0,0,1,8.761,1.936A46.809,46.809,0,0,1,62.6,156.45c1.206.688,2.4,1.428,3.566,2.211a90.728,90.728,0,0,1,14.823,12.732h3.737a45.992,45.992,0,0,0-2.087-4.127,55.985,55.985,0,0,0-3.361-5.241" transform="translate(-3.544 -43.158)" fill="#fff"/>
    </g>
  </g>
</svg>
